<?xml version="1.0" standalone="no"?><!DOCTYPE svg PUBLIC "-//W3C//DTD SVG 1.1//EN" "http://www.w3.org/Graphics/SVG/1.1/DTD/svg11.dtd"><svg t="1582521444831" class="icon" viewBox="0 0 1024 1024" version="1.1" xmlns="http://www.w3.org/2000/svg" p-id="18077" xmlns:xlink="http://www.w3.org/1999/xlink" width="64" height="64"><defs><style type="text/css"></style></defs><path d="M512 284.3230811c-61.06984334-61.06984334-160.10202112-61.06984334-221.26895445 0-77.38102557 77.38102557-77.38102557 202.91887445 0 280.29990002l221.46313557 220.97768221 220.97768221-220.97768221c77.38102557-77.38102557 77.38102557-202.91887445 0-280.29990002-39.61287111-39.61287111-95.05147221-53.49679445-145.82973554-41.84594887" fill="#ff7272" p-id="18078"></path><path d="M868.51584 145.96930333c-66.60399445-66.60399445-161.17001443-93.78929778-253.11459555-72.62359666-20.87443001 4.8545189-33.98163001 25.63185778-29.12711112 46.60337778 4.75742777 20.87443001 25.63185778 33.88453888 46.60337778 29.1271111 65.63308999-15.14609778 133.20798777 4.27197667 180.78227001 51.84625778 99.80890112 99.80890112 99.80890112 262.144 0 361.95290112L512.3883611 863.95259221l-301.95105109-301.17432888c-99.80890112-99.80890112-99.80890112-262.144 0-361.95289999 75.53630777-75.53630777 198.54980779-75.53630777 274.08611556 0l66.99235555 67.38071666c7.67013888 7.76723001 75.14794667 74.17704334 144.66465109 74.17704334 1.74762667 0 3.59234333 0 5.33997113-0.09709113 29.32129223-1.45635555 55.05024-14.85482667 74.17704221-38.64196664a38.74876643 38.74876643 0 0 0-5.92251222-54.56478891 38.83614777 38.83614777 0 0 0-54.56478776 5.92251335c-6.50505443 8.15559111-12.23338667 9.51485667-17.47626667 9.70903666-28.83584 1.65053667-73.69159111-33.78744889-90.9736778-51.16662557l-67.18653553-67.67198777v-0.09708999c-105.82850333-105.82850333-278.06682112-105.82850333-383.99241558 0-130.10109667 130.10109667-130.10109667 341.66101333 0 471.76210887l329.42762667 328.65090446c7.57304889 7.57304889 17.47626667 11.35957333 27.47657557 11.35957334 9.90321778 0 19.90352555-3.78652445 27.47657444-11.35957334l328.65090332-328.65090446c129.90691555-129.90691555 129.90691555-341.56392334-0.09708999-471.56792888z" fill="#333333" p-id="18079"></path><path d="M240.63241443 413.45327445c-21.45697223 0-38.83614777-17.37917667-38.83614776-38.8361489 0-56.99204779 16.31118222-100.87689443 48.54518556-130.58654777 43.10812445-39.61287111 96.6049189-36.40888889 102.52743111-35.92343666 21.3598811 1.74762667 37.28270222 20.5831589 35.53507556 41.94304A38.73905778 38.73905778 0 0 1 346.94636999 285.58525667c-1.26217443 0-26.50567111-0.87381333-44.56448 16.11700111-15.24318777 14.36937443-22.91332779 38.9332389-22.91332665 72.91486777 0 21.3598811-17.37917667 38.83614777-38.83614891 38.8361489z" fill="#333333" p-id="18080"></path></svg>