<?xml version="1.0" standalone="no"?><!DOCTYPE svg PUBLIC "-//W3C//DTD SVG 1.1//EN" "http://www.w3.org/Graphics/SVG/1.1/DTD/svg11.dtd"><svg t="1582520949184" class="icon" viewBox="0 0 1024 1024" version="1.1" xmlns="http://www.w3.org/2000/svg" p-id="1567" xmlns:xlink="http://www.w3.org/1999/xlink" width="64" height="64"><defs><style type="text/css"></style></defs><path d="M519.111111 832c-68.266667 0-341.333333-223.288889-341.333333-372.622222 0-119.466667 96.711111-216.177778 216.177778-216.177778 45.511111 0 88.177778 14.222222 125.155555 39.822222 36.977778-25.6 79.644444-39.822222 125.155556-39.822222 119.466667 0 216.177778 96.711111 216.177777 216.177778 0 153.6-271.644444 372.622222-341.333333 372.622222z m-125.155555-531.911111c-88.177778 0-159.288889 71.111111-159.288889 159.288889 0 115.2 241.777778 310.044444 285.866666 315.733333 41.244444-2.844444 283.022222-196.266667 283.022223-315.733333 0-88.177778-71.111111-159.288889-159.288889-159.288889-39.822222 0-76.8 14.222222-106.666667 41.244444-11.377778 9.955556-27.022222 9.955556-38.4 0-28.444444-27.022222-65.422222-41.244444-105.244444-41.244444z" fill="#3FA6AD" p-id="1568"></path><path d="M523.377778 635.733333c-46.933333 0-88.177778-21.333333-110.933334-38.4-12.8-9.955556-14.222222-28.444444-4.266666-39.822222 9.955556-12.8 28.444444-14.222222 39.822222-4.266667 2.844444 2.844444 73.955556 56.888889 140.8 0 11.377778-9.955556 29.866667-8.533333 39.822222 2.844445s8.533333 29.866667-2.844444 39.822222c-32.711111 28.444444-69.688889 39.822222-102.4 39.822222z" fill="#DC4569" p-id="1569"></path></svg>