<?xml version="1.0" standalone="no"?><!DOCTYPE svg PUBLIC "-//W3C//DTD SVG 1.1//EN" "http://www.w3.org/Graphics/SVG/1.1/DTD/svg11.dtd"><svg t="1582521427850" class="icon" viewBox="0 0 1024 1024" version="1.1" xmlns="http://www.w3.org/2000/svg" p-id="17314" xmlns:xlink="http://www.w3.org/1999/xlink" width="64" height="64"><defs><style type="text/css"></style></defs><path d="M624.7 315.1c6.9 0 14.3 0.4 22.2 1.1 48.1 4.4 103.6 46.1 110.4 126v26.6C751 545.2 690.1 639.6 512 757.9 333.9 639.6 273 545.2 266.7 468.8v-26.6c6.8-79.9 62.3-121.6 110.4-126 7.9-0.7 15.3-1.1 22.2-1.1 55.5 0 82.2 22.7 112.7 57.2 30.5-34.5 57.1-57.2 112.7-57.2" fill="#FFC44F" p-id="17315"></path><path d="M512 784.4l-12.2-8.1C336.2 667.5 252.7 567.5 244.7 470.6l-0.1-28.4c7.9-94.7 73.1-142.7 130.4-148 71-6.6 107 15.8 137 45.8 29.9-29.9 66.1-52.3 136.9-45.7 57.3 5.3 122.5 53.3 130.3 146.1l0.1 28.5c-8.1 98.7-91.5 198.7-255.1 307.5l-12.2 8zM399.3 337.1c-6.3 0-13 0.3-20.2 1-39.6 3.7-84.7 38.4-90.5 106l0.1 24.7c6.5 77.5 81.6 166.3 223.3 262.6C653.7 635.1 728.8 546.2 735.3 467l-0.1-24.8c-5.6-65.7-50.8-100.4-90.4-104.1-57.8-5.3-81.5 9.5-116.3 48.8L512 405.5l-16.5-18.6c-30.5-34.4-51.6-49.8-96.2-49.8zM512 207.5c-12.2 0-22-9.9-22-22v-65.3c0-12.2 9.9-22 22-22s22 9.9 22 22v65.3c0 12.2-9.8 22-22 22zM281.1 303.2c-5.6 0-11.3-2.2-15.6-6.5l-46.2-46.2c-8.6-8.6-8.6-22.6 0-31.2 8.6-8.6 22.6-8.6 31.2 0l46.2 46.2c8.6 8.6 8.6 22.6 0 31.2-4.3 4.3-9.9 6.5-15.6 6.5zM185.5 534h-65.3c-12.2 0-22-9.9-22-22s9.9-22 22-22h65.3c12.2 0 22 9.9 22 22s-9.8 22-22 22zM235 811.1c-5.6 0-11.3-2.2-15.6-6.5-8.6-8.6-8.6-22.6 0-31.2l46.2-46.2c8.6-8.6 22.6-8.6 31.2 0 8.6 8.6 8.6 22.6 0 31.2l-46.2 46.2c-4.4 4.3-10 6.5-15.6 6.5zM512 925.8c-12.2 0-22-9.9-22-22v-65.3c0-12.2 9.9-22 22-22s22 9.9 22 22v65.3c0 12.2-9.8 22-22 22zM789 811.1c-5.6 0-11.3-2.2-15.6-6.5l-46.2-46.2c-8.6-8.6-8.6-22.6 0-31.2 8.6-8.7 22.6-8.6 31.2 0l46.2 46.2c8.6 8.6 8.6 22.6 0 31.2-4.3 4.3-9.9 6.5-15.6 6.5zM903.8 534h-65.3c-12.2 0-22-9.9-22-22s9.9-22 22-22h65.3c12.2 0 22 9.9 22 22s-9.8 22-22 22zM742.9 303.2c-5.6 0-11.3-2.2-15.6-6.5-8.6-8.6-8.6-22.6 0-31.2l46.2-46.2c8.6-8.6 22.6-8.6 31.2 0 8.6 8.6 8.6 22.6 0 31.2l-46.2 46.2c-4.4 4.3-10 6.5-15.6 6.5z" fill="#2B2E54" p-id="17316"></path></svg>