<?xml version="1.0" standalone="no"?><!DOCTYPE svg PUBLIC "-//W3C//DTD SVG 1.1//EN" "http://www.w3.org/Graphics/SVG/1.1/DTD/svg11.dtd"><svg t="1582522890568" class="icon" viewBox="0 0 1024 1024" version="1.1" xmlns="http://www.w3.org/2000/svg" p-id="11386" xmlns:xlink="http://www.w3.org/1999/xlink" width="200" height="200"><defs><style type="text/css"></style></defs><path d="M691 730.1c6 0 10.9-4.9 10.9-10.9V211c0-6-4.9-10.9-10.9-10.9H332.7c-6 0-10.9 4.9-10.9 10.9v508.2c0 6 4.9 10.9 10.9 10.9H691z" fill="#FFFFFF" p-id="11387"></path><path d="M897.1 285.9c-25-39.8-63.9-67.6-109.7-78.1s-93-2.6-132.8 22.4c-39.8 25-67.6 63.9-78.1 109.7l-5.3 22.9c-1.3 5.6-5.7 10-11.3 11.3-5.6 1.3-11.5-0.8-15.1-5.3-11.1-14-29.4-20.1-46.7-15.6-11.6 3.1-21.3 10.4-27.4 20.8-6 10.4-7.7 22.5-4.6 34.1l41.1 156.2c0.9 3.4 2.2 6.6 3.8 9.6l353.6 81.2c0.2 0 0.3 0.1 0.5 0.1l54.3-236.6c10.6-45.7 2.7-92.8-22.3-132.7z" fill="#75EAD8" p-id="11388"></path><path d="M857.9 768.8c-1.1 0-2.2-0.1-3.4-0.4l-372.2-85.5c-8.1-1.9-13.1-9.9-11.3-18l16.5-71.8c-4.1-6.5-7.2-13.6-9.2-21.1l-41.1-156.2c-5.1-19.3-2.4-39.5 7.7-56.8 10.1-17.3 26.3-29.6 45.6-34.7 19.6-5.2 40.1-2.1 57 7.8 12.5-53.1 44.8-98.3 91.1-127.3 46.6-29.2 101.8-38.5 155.4-26.2 53.6 12.3 99.2 44.8 128.4 91.4 29.2 46.6 38.5 101.8 26.2 155.4l-76.2 331.7c-0.9 3.9-3.3 7.2-6.7 9.4-2.2 1.5-5 2.3-7.8 2.3zM503.7 657.1l343 78.8 72.8-317.1c10.5-45.8 2.6-93-22.4-132.8-25-39.8-63.9-67.6-109.7-78.1-45.8-10.5-93-2.6-132.8 22.4-39.8 25-67.6 63.9-78.1 109.7l-5.3 22.9c-1.3 5.6-5.7 10-11.3 11.3-5.6 1.3-11.5-0.8-15.1-5.3-11.1-14-29.4-20.1-46.7-15.6-11.6 3.1-21.3 10.4-27.4 20.8-6 10.4-7.7 22.5-4.6 34.1l41.1 156.2c1.6 6 4.3 11.5 8.1 16.3 2.8 3.6 3.8 8.2 2.8 12.6l-14.4 63.8z" fill="#39000E" p-id="11389"></path><path d="M467.8 659.4l376.1 86.4c6.2 1.4 12.6 0.3 18-3 5.4-3.4 9.2-8.7 10.6-14.9l10.1-44c1.4-6.2 0.3-12.6-3-18-3.4-5.4-8.7-9.2-14.9-10.6l-376.1-86.4c-12.8-2.9-25.7 5.1-28.6 17.9l-10.1 44c-2.9 12.8 5.1 25.6 17.9 28.6z" fill="#EF7D85" p-id="11390"></path><path d="M879.6 665.8c-3.4-5.4-8.7-9.2-14.9-10.6l-9.4-2.2c4.1 2 7.5 5 9.9 8.9 3.4 5.5 4.5 11.9 3.1 18.2l-10.2 44.4c-1.4 6.3-5.2 11.6-10.7 15.1-4.3 2.7-9.2 3.9-14.1 3.6l10.6 2.4c6.2 1.4 12.6 0.3 18-3 5.4-3.4 9.2-8.7 10.6-14.9l10.1-44c1.5-6.1 0.4-12.5-3-17.9z" fill="#FFFFFF" p-id="11391"></path><path d="M732.2 515.2c-1 0-2.1 0-3.1-0.1-4.1-0.1-8.2-0.6-12.4-1.6-4.2-0.9-8.1-2.3-11.8-4-26-11.4-49.5-38.7-63-73.2-10.3-26.3-13.5-53.7-9.1-77.2 4.7-25.1 17.6-43 36.2-50.3 27.4-10.7 61.1 4.6 85.9 38.3 37-19.4 74-18.5 94 3.1 13.6 14.7 17.4 36.4 10.7 61-6.3 23-21.2 46.2-41.9 65.4-26.1 24.4-57.9 38.6-85.5 38.6z m-45-189.7c-3.8 0-7.4 0.6-10.9 2-26 10.2-33.2 56.7-15.7 101.5 11.4 29.3 31.5 53.1 52.5 62.2 0.1 0 0.2 0.1 0.3 0.1 2.4 1.1 5 2 7.9 2.6h0.1c2.8 0.7 5.6 1 8.2 1.1h0.3c22.8 0.9 51.3-11.7 74.3-33.1 18-16.7 30.9-36.6 36.2-56 4.9-17.8 2.7-32.7-6-42.2-14.6-15.7-46.3-13.7-77.2 5.1-4.6 2.8-10.7 1.4-13.6-3.1-16.3-25.1-38-40.2-56.4-40.2z" fill="#39000E" p-id="11392"></path><path d="M804.1 462c18-16.7 30.9-36.6 36.2-56 4.9-17.8 2.7-32.7-6-42.2-14.6-15.7-46.3-13.7-77.2 5.1-4.6 2.8-10.7 1.4-13.6-3.1-16.2-25.1-38-40.2-56.3-40.2-3.8 0-7.4 0.6-10.9 2-26 10.2-33.2 56.7-15.7 101.5 11.4 29.3 31.5 53.1 52.5 62.2 0.1 0 0.2 0.1 0.3 0.1 2.4 1.1 5 2 7.9 2.6h0.1c2.8 0.7 5.6 1 8.2 1.1h0.3c22.7 0.9 51.2-11.7 74.2-33.1z" fill="#EF7D85" p-id="11393"></path><path d="M562.8 379.8c3.6 4.5 9.4 6.6 15.1 5.3 5.6-1.3 10-5.7 11.3-11.3l5.3-22.9c10.5-45.8 38.3-84.8 78.1-109.7 39.8-25 87-32.9 132.8-22.4 15.3 3.5 29.9 9 43.4 16.1-18.3-12.7-39-22-61.4-27.1-45.8-10.5-93-2.6-132.8 22.4-39.8 25-67.6 63.9-78.1 109.7l-5.3 22.9c-1.3 5.6-5.7 10-11.3 11.3-0.7 0.2-1.4 0.3-2.1 0.3 1.8 1.7 3.5 3.5 5 5.4z" fill="#EAFFCD" p-id="11394"></path><path d="M165.7 579.2l351.2-91c1.5-3.1 2.7-6.3 3.5-9.7l36.8-157.3c2.7-11.7 0.8-23.7-5.6-33.9-6.3-10.2-16.2-17.3-27.9-20-17.4-4.1-35.5 2.6-46.2 16.8-3.5 4.6-9.3 6.8-14.9 5.7-5.7-1.1-10.2-5.4-11.6-11l-6-22.8c-20.5-79.2-92.1-131.8-170.4-131.8-14.6 0-29.4 1.8-44.1 5.6C136.6 154.1 80 250.4 104.3 344.3l60.9 235c0.2 0 0.3-0.1 0.5-0.1z" fill="#75EAD8" p-id="11395"></path><path d="M175.2 692.5c-6.7 0-12.8-4.5-14.5-11.2L75.3 351.8c-28.5-109.9 37.8-222.6 147.7-251 53.3-13.8 108.7-6 156.1 21.9 47.1 27.7 80.7 72 94.6 124.7 16.6-10.4 37-14 56.7-9.4 19.5 4.6 36 16.4 46.6 33.4 10.6 17 13.9 37.1 9.3 56.6l-36.8 157.3c-1.8 7.6-4.7 14.8-8.6 21.4l18.5 71.3c2.1 8-2.7 16.2-10.8 18.3L179 692.1c-1.3 0.3-2.6 0.4-3.8 0.4z m99.5-568.3c-14.6 0-29.4 1.8-44.1 5.6-94 24.3-150.6 120.6-126.3 214.5l81.6 315L526.6 571l-16.4-63.3c-1.1-4.4-0.2-9.1 2.5-12.7 3.7-4.9 6.3-10.5 7.7-16.5l36.8-157.3c2.7-11.7 0.8-23.7-5.6-33.9-6.3-10.2-16.2-17.3-27.9-20-17.4-4.1-35.5 2.6-46.2 16.8-3.5 4.6-9.3 6.8-14.9 5.7-5.7-1.1-10.2-5.4-11.6-11l-6-22.8c-20.5-79.2-92.1-131.8-170.3-131.8z m-47.9-8.9z" fill="#39000E" p-id="11396"></path><path d="M292 435.5c-27.1 0-58.2-13.2-84.3-36.1-21.3-18.6-36.8-41.4-43.7-64.3-7.4-24.5-4.2-46.3 9-61.3 19.4-22.1 56.3-24.1 93.9-5.7 23.9-34.3 57.1-50.5 84.8-40.6 18.9 6.8 32.2 24.2 37.6 49.3 5 23.3 2.6 50.8-7 77.4-12.5 34.8-35.3 62.8-61 74.9-3.6 1.8-7.6 3.3-11.7 4.3-4.1 1.1-8.3 1.7-12.3 1.9-1.8 0.2-3.5 0.2-5.3 0.2zM188 287c-18.4 21-3.4 65.6 32.9 97.3 23.6 20.7 52.5 32.6 75.2 31h0.3c2.7-0.1 5.4-0.5 8.2-1.3h0.1c2.8-0.7 5.4-1.7 7.8-2.9 0.1 0 0.2-0.1 0.3-0.1 20.7-9.7 40.1-34.1 50.7-63.6 8.3-23.1 10.5-46.7 6.3-66.4-3.9-18-12.7-30.3-24.8-34.6-20.2-7.2-47.4 9.2-66.1 40.1-2.8 4.6-8.8 6.2-13.5 3.5-31.5-17.9-63.3-19.1-77.4-3z" fill="#39000E" p-id="11397"></path><path d="M304.7 414c2.8-0.7 5.4-1.7 7.8-2.9 0.1 0 0.2-0.1 0.3-0.1 20.7-9.7 40.1-34.1 50.7-63.6 8.3-23.1 10.5-46.7 6.3-66.4-3.9-18-12.7-30.3-24.8-34.6-20.2-7.2-47.4 9.2-66.1 40.1-2.8 4.6-8.8 6.2-13.5 3.5-31.4-17.9-63.1-19.1-77.3-2.9-18.4 21-3.4 65.6 32.9 97.3 23.6 20.7 52.5 32.6 75.2 31h0.3c2.7-0.1 5.4-0.5 8.2-1.3-0.1 0-0.1 0 0-0.1z" fill="#EF7D85" p-id="11398"></path><path d="M523.2 929c-42.7 0-85.6-11.7-123.2-33.9-38.3-22.7-71.9-56.2-97.1-97-23.9-38.6-39.6-82-46.7-128.9-1.2-8.2 5.2-15.8 14.5-16.9 9.2-1.1 17.7 4.6 19 12.9 6.6 43.2 21 83 42.8 118.4 22.6 36.5 52.4 66.4 86.2 86.4 38.2 22.6 82.6 32.4 125.2 27.8 40.9-4.4 80.4-21.9 114.2-50.5 30.2-25.6 55.4-59.7 72.9-98.7 2.1-4.7 4.1-9.6 6-14.5 3-7.8 12.6-12 21.4-9.3 8.8 2.7 13.5 11.2 10.4 19.1-2.1 5.3-4.3 10.6-6.6 15.8-19.5 43.6-46.8 80.4-81 109.4-39.1 33.1-85.2 53.3-133.4 58.6-8 0.9-16.3 1.3-24.6 1.3z" fill="#39000E" p-id="11399"></path><path d="M158.2 550.1l44.8-11.6-50.3-194.2c-24.3-93.9 32.3-190.1 126.2-214.5 6.7-1.7 13.4-3 20-4-8-1.1-16-1.7-24.2-1.7-14.6 0-29.4 1.8-44.1 5.6-94 24.4-150.6 120.7-126.3 214.6l53.4 206c0.2-0.1 0.3-0.1 0.5-0.2z" fill="#EAFFCD" p-id="11400"></path><path d="M551.6 287.2c-6.3-10.2-16.2-17.3-27.9-20-10.2-2.4-20.7-1.1-29.8 3.3 5.5-0.8 11.2-0.6 16.8 0.7 11.7 2.7 21.6 9.8 27.9 20 6.3 10.2 8.3 22.2 5.6 33.9l-36.8 157.3c-0.7 3.1-1.8 6.1-3.2 9l12.7-3.3c1.5-3.1 2.7-6.3 3.5-9.7l36.8-157.3c2.7-11.7 0.7-23.7-5.6-33.9zM217.5 133.8c14.7-3.8 29.5-5.6 44.1-5.6 78.2 0 149.8 52.7 170.4 131.8l5.9 22.8c1.4 5.6 6 9.8 11.6 11 4.9 1 9.8-0.6 13.3-3.9-0.1 0-0.2 0-0.3-0.1-5.7-1.1-10.2-5.4-11.6-11L445 256c-20.5-79.2-92.1-131.8-170.4-131.8-14.6 0-29.4 1.8-44.1 5.6-4.8 1.2-9.5 2.7-14.1 4.3 0.4-0.1 0.8-0.2 1.1-0.3zM897.1 285.9c-25-39.8-63.9-67.6-109.7-78.1-16-3.7-32.2-5.1-48.2-4.3 10.4 0.5 20.9 1.9 31.2 4.3 45.8 10.5 84.8 38.3 109.7 78.1 25 39.8 32.9 87 22.4 132.8L849 651.6l15.7 3.6c0.2 0 0.3 0.1 0.5 0.1l54.3-236.6c10.5-45.8 2.6-92.9-22.4-132.8z" fill="#FFFFFF" p-id="11401"></path><path d="M849.3 776.4c-4 0-8-0.4-12.1-1.4l-376.1-86.4c-14-3.2-26-11.7-33.6-23.9-7.6-12.2-10.1-26.6-6.9-40.7l10.1-44c6.7-29 35.6-47.1 64.6-40.5L871.4 626c14 3.2 26 11.7 33.6 23.9 7.6 12.2 10.1 26.6 6.9 40.7l-10.1 44c-5.8 24.8-28 41.8-52.5 41.8z m-5.4-30.7c6.2 1.4 12.6 0.3 18-3 5.4-3.4 9.2-8.7 10.6-14.9l10.1-44c1.4-6.2 0.3-12.6-3-18-3.4-5.4-8.7-9.2-14.9-10.6l-376.1-86.4c-12.8-2.9-25.7 5.1-28.6 17.9l-10.1 44c-2.9 12.8 5.1 25.7 17.9 28.6l376.1 86.4z" fill="#39000E" p-id="11402"></path><path d="M579.6 543.2l-11.3-43.7c-1.6-6.2-5.5-11.4-11-14.6-3.7-2.2-7.9-3.3-12.1-3.3-2 0-4 0.3-6 0.8l-373.5 96.8c-6.2 1.6-11.4 5.5-14.6 11-3.2 5.5-4.1 11.9-2.5 18.1l11.3 43.7c1.6 6.2 5.5 11.4 11 14.6 5.5 3.2 11.9 4.1 18.1 2.5l373.5-96.8c12.8-3.3 20.4-16.4 17.1-29.1z" fill="#EF7D85" p-id="11403"></path><path d="M210.1 656.9c-5.6-3.3-9.5-8.5-11.1-14.7l-11.4-44.1c-1.6-6.2-0.7-12.7 2.6-18.3 2.6-4.5 6.6-7.9 11.3-9.9l-35.7 9.3c-6.2 1.6-11.4 5.5-14.6 11-3.2 5.5-4.1 11.9-2.5 18.1L160 652c1.6 6.2 5.5 11.4 11 14.6 5.5 3.2 11.9 4.1 18.1 2.5l34.2-8.9c-4.6 0.2-9.2-0.9-13.2-3.3z" fill="#EAFFCD" p-id="11404"></path><path d="M579.6 543.2l-11.3-43.7c-1.6-6.2-5.5-11.4-11-14.6-3.7-2.2-7.9-3.3-12.1-3.3-2 0-4 0.3-6 0.8l-5.2 1.4c4.2 0 8.4 1.1 12.1 3.3 5.6 3.3 9.5 8.5 11.1 14.7l11.4 44.1c3.2 12.3-3.7 24.8-15.6 28.9l9.4-2.4c12.9-3.4 20.5-16.5 17.2-29.2z" fill="#FFFFFF" p-id="11405"></path><path d="M182.9 699.9c-9.5 0-18.8-2.5-27.2-7.5-12.4-7.3-21.2-19-24.8-32.9l-11.3-43.7c-3.6-13.9-1.6-28.4 5.7-40.8s19-21.2 32.9-24.8l373.5-96.8c13.9-3.6 28.4-1.6 40.8 5.7s21.2 19 24.8 32.9l11.3 43.7c7.5 28.8-9.9 58.2-38.6 65.7l-373.5 96.8c-4.5 1.1-9.1 1.7-13.6 1.7z m362.3-218.3c-2 0-4 0.3-6 0.8l-373.5 96.8c-6.2 1.6-11.4 5.5-14.6 11-3.2 5.5-4.1 11.9-2.5 18.1l11.3 43.7c1.6 6.2 5.5 11.4 11 14.6 5.5 3.2 11.9 4.1 18.1 2.5l373.5-96.8c12.8-3.3 20.4-16.4 17.1-29.1l-11.3-43.7c-1.6-6.2-5.5-11.4-11-14.6-3.7-2.2-7.9-3.3-12.1-3.3z" fill="#39000E" p-id="11406"></path></svg>