<?xml version="1.0" standalone="no"?><!DOCTYPE svg PUBLIC "-//W3C//DTD SVG 1.1//EN" "http://www.w3.org/Graphics/SVG/1.1/DTD/svg11.dtd"><svg t="1582522631342" class="icon" viewBox="0 0 1024 1024" version="1.1" xmlns="http://www.w3.org/2000/svg" p-id="1857" xmlns:xlink="http://www.w3.org/1999/xlink" width="200" height="200"><defs><style type="text/css"></style></defs><path d="M490.7 355.15c0.21 1.28 5 31.77 2.56 72.89a10 10 0 0 1-10 9.42h-0.59a10 10 0 0 1-9.4-10.57c0.71-12.22 0.74-23.5 0.46-33.25l-61.67 345.7c9.92-11 20.32-23.56 31.42-38 13.07-16.93 36.44-51.64 56.84-87.83q3.51-6.21 6.68-12.13c-21.14-23.88-33.89-47.4-37.87-69.92a83.75 83.75 0 0 1 8.27-54.23c8.77-16.94 22-29.45 31.5-37a134.29 134.29 0 0 1 13.42-9.23 46.54 46.54 0 0 1 6.18-3.35c-4.16-45.48-9.08-90.73-11.07-108.69l-30.4 0.32-4.92 27.54a10 10 0 0 1 8.59 8.33zM311.88 662.44c0-74.61 86.55-258.62 121.76-342.63l-141.35 1.46c-17.49 43-130.61 321.41-139.75 353.45a115.17 115.17 0 0 0-4.34 31.39c9.59-4.59 60.78-27.4 92.15-8.05 12.69 7.82 80.59 78.48 92.18 106.68A257.87 257.87 0 0 0 375.7 775c-34.19-27.63-63.82-80.65-63.82-112.56z m-63.37-147c-9.39 18-20 50.57-20.09 50.9a10 10 0 0 1-9.51 6.92 9.73 9.73 0 0 1-3.08-0.5 10 10 0 0 1-6.43-12.59c0.45-1.4 11.22-34.44 21.37-54a10 10 0 1 1 17.74 9.23z" fill="#AEE8FF" p-id="1858"></path><path d="M240.35 698.06c-31.37-19.35-82.56 3.46-92.15 8.05a129.84 129.84 0 0 0 42.57 95.7c30.57 27.44 69.21 34.61 106 19.66a340.53 340.53 0 0 0 35.77-16.73c-11.6-28.2-79.54-98.86-92.19-106.68zM374.1 254.15h-18v-47.7h-44.05v47.7h-18v-47.7h-37.9a19.1 19.1 0 0 0-19.07 19.07v56.28a19.1 19.1 0 0 0 19.07 19.07h185.2c5-12.93 7.65-21.32 6.76-23.54-4.59-11.48-22.36-10.31-31.59-19.53-10.36-10.36-12.55-34.36-12.71-51.35H374.1z m-97.66 34.38H260a10 10 0 0 1 0-20h16.4a10 10 0 1 1 0 20zM495.55 271.49H526a10 10 0 0 1 0 20h-34l-1.67 9.38h35.11l8.07-0.08v0.08h5.23a19.1 19.1 0 0 0 19.06-19.07v-56.28a19.1 19.1 0 0 0-19.07-19.07h-34.87v47.7h-10v-47.7h-48.08L497.06 263z" fill="#FFD952" p-id="1859"></path><path d="M256.15 309.87a28.15 28.15 0 0 1-28.07-28.07v-56.28a28.15 28.15 0 0 1 28.07-28.07h147.76c0.14-4.46 0.37-7.71 0.47-9H256.15a37.11 37.11 0 0 0-37.07 37.07v56.28a37.11 37.11 0 0 0 37.07 37.07h17.68l3.66-9zM538.73 188.45H429.47l8.16 9h101.1a28.15 28.15 0 0 1 28.07 28.07v56.28a28.15 28.15 0 0 1-28.07 28.07h-4.2c0.18 1.59 0.53 4.69 1 9h3.19a37.11 37.11 0 0 0 37.08-37.07v-56.28a37.11 37.11 0 0 0-37.07-37.07z" p-id="1860"></path><path d="M438.91 198.05v0.82l6.87 7.58h48.08v-8.4h10v8.4h34.87a19.1 19.1 0 0 1 19.07 19.07v56.28a19.1 19.1 0 0 1-19.07 19.07h-5.23l0.91 8c0 0.2 0.06 0.55 0.12 1h4.2a28.15 28.15 0 0 0 28.07-28.07v-56.28a28.15 28.15 0 0 0-28.07-28.07h-101.1l0.54 0.6zM280.13 303.39L441 301.74l0.34-0.87H256.15a19.1 19.1 0 0 1-19.07-19.07v-56.28a19.1 19.1 0 0 1 19.07-19.07h37.9v-8.4h18v8.4h44.05v-8.4h18v8.4h29.71c0-3.32 0-6.37 0.1-9H256.15a28.15 28.15 0 0 0-28.07 28.07v56.28a28.15 28.15 0 0 0 28.07 28.07h21.34l0.38-0.94zM490.24 301.23l35.18-0.36h-35.11l-0.07 0.36z" p-id="1861"></path><path d="M479.41 500.88C473.35 529 484.33 559.65 512 592c14.87-28.82 23.16-51 23.16-62.46 0-20-2.53-54.95-5.72-91.06-9.69 5.59-42.44 26.96-50.03 62.4z" fill="#F9BBD5" p-id="1862"></path><path d="M508.93 440.31c-9.53 7.51-22.73 20-31.5 37a83.75 83.75 0 0 0-8.27 54.23c4 22.52 16.73 46 37.87 69.92q1.46-2.7 2.85-5.34l-0.18-0.17C424.22 498 516.37 439.93 529 433l-0.48-5.35a46.54 46.54 0 0 0-6.18 3.35 134.29 134.29 0 0 0-13.41 9.31z" p-id="1863"></path><path d="M509.7 595.91l0.18 0.17Q511 594 512 592c-27.7-32.3-38.68-62.92-32.62-91.07 7.63-35.44 40.34-56.81 50.06-62.45-0.16-1.81-0.32-3.63-0.49-5.44-12.58 6.89-104.73 64.96-19.25 162.87z" p-id="1864"></path><path d="M543.56 503.5l2.65 14.31q-1 2.81-2.06 5.84v5.84c0 36.65-64.82 140.16-93.56 177.39a609.18 609.18 0 0 1-41.48 48.89l-2.79 15.68c15.92-15.66 32.72-34.88 51.4-59.07 26.28-34 95.43-141.84 95.43-182.89 0-47.91-13.57-173.84-17.65-210.62h-5.11c0.9 9.7 10.61 120.51 13.17 184.63zM333.43 814.44c-4.39 6.25-18.1 11.49-32.35 15l-0.93 0.38C257.74 847 217 836.09 187.09 810.53a54 54 0 0 1-6.84-6.27l-0.12-0.13c-32.94-32.6-50-83.81-36.25-131.88 9.4-32.94 128.55-314 145.28-353.38h-15.33c-22.67 55.74-129.36 318.51-138.6 350.91-7.35 25.75-6.78 53.44 1.65 80.07a147.55 147.55 0 0 0 41.86 65.35c16.69 15 36.33 25.19 56.82 29.52a112.09 112.09 0 0 0 23.28 2.46 118.2 118.2 0 0 0 44.7-9c31.64-12.86 58.68-27.3 87.66-52.63a90.7 90.7 0 0 1-8.08-5 269.19 269.19 0 0 1-49.69 33.89z" p-id="1865"></path><path d="M332.53 804.74c1.8 4.39 2.25 7.77 0.9 9.7a269.19 269.19 0 0 0 49.69-33.89q-3.73-2.55-7.42-5.55a257.87 257.87 0 0 1-43.17 29.74zM146.62 706.88l1.58-0.77a115.17 115.17 0 0 1 4.34-31.39c9.14-32 122.26-310.46 139.75-353.45l141.35-1.46c0.14-0.31 0.27-0.63 0.4-0.94H289.16c-16.73 39.42-135.88 320.44-145.28 353.38-13.71 48.07 3.31 99.28 36.25 131.88-20.13-22.25-41-53.62-33.51-97.25zM487 319.27l30.4-0.32c2 18 6.91 63.21 11.07 108.69a4.23 4.23 0 0 1 2.45-0.33l-0.58 5 0.91 4.91a5 5 0 0 0 0.93-0.26s-0.35 0.17-0.89 0.46l12.24 66.11c-2.59-64.12-12.27-174.93-13.13-184.63h-43.3zM187.09 810.53C217 836.09 257.74 847 300.15 829.81l0.93-0.38c-12.3 3-25 4.77-32.44 4.77-14.56 0-57.53-5.06-81.55-23.67zM515.1 595.46l0.35 0.39-7.45 6.68-1-1.11q-3.18 5.91-6.68 12.13c-20.4 36.19-43.77 70.9-56.84 87.83-11.1 14.39-21.5 26.92-31.42 38l-2.94 16.44a609.18 609.18 0 0 0 41.48-48.89c28.74-37.23 93.56-140.74 93.56-177.39v-5.84c-9.01 25.89-20.56 63.51-29.06 71.76zM180.25 804.26a54 54 0 0 0 6.84 6.27q-3.59-3.07-7-6.4zM333.43 814.44a356.35 356.35 0 0 1-32.35 15c14.25-3.51 27.92-8.75 32.35-15z" p-id="1866"></path><path d="M332.53 804.74a340.53 340.53 0 0 1-35.77 16.73c-36.78 14.95-75.42 7.78-106-19.66a129.84 129.84 0 0 1-42.57-95.7l-1.58 0.77c-7.49 43.63 13.34 75 33.51 97.25q3.38 3.33 7 6.4c24 18.61 67 23.67 81.55 23.67 7.45 0 20.14-1.74 32.44-4.77a356.35 356.35 0 0 0 32.35-15c1.32-1.92 0.87-5.3-0.93-9.69zM525.42 300.87h8.08l-0.01-0.08-8.07 0.08zM291.11 314.28L435 316.63c1-2.34 1.91-4.6 2.79-6.76h-160.3l-3.66 9h15.33zM488.7 309.87l-1.36 7.61 43 0.71 0.06 0.68h5.11c-0.48-4.31-0.83-7.41-1-9z" p-id="1867"></path><path d="M530.43 318.87l-0.06-0.68-43-0.71-0.24 1.39zM435 316.63l-143.86-2.35-1.95 4.59H434c0.35-0.76 0.67-1.5 1-2.24zM533.5 300.87h-8.08l-35.18 0.36-1.54 8.64h45.83c-0.06-0.47-0.1-0.82-0.12-1zM280.13 303.39l-2.26 5.54-0.38 0.94h160.27c1.17-2.87 2.26-5.59 3.25-8.13zM294.05 206.45h18v47.7h-18z" p-id="1868"></path><path d="M294.05 198.05h18v8.4h-18zM356.1 206.45h18v47.7h-18z" p-id="1869"></path><path d="M356.1 198.05h18v8.4h-18zM438.91 198.05h-0.74l0.74 0.82v-0.82zM493.86 206.45h10v47.7h-10z" p-id="1870"></path><path d="M493.86 198.05h10v8.4h-10z" p-id="1871"></path><path d="M473.3 426.88a10 10 0 0 0 9.4 10.57h0.59a10 10 0 0 0 10-9.42c2.4-41.12-2.35-71.61-2.56-72.89a10 10 0 0 0-8.59-8.34l-8.35 46.82c0.21 9.76 0.21 21.04-0.49 33.26zM536 281.49a10 10 0 0 0-10-10h-30.4l-3.57 20h34a10 10 0 0 0 9.97-10zM244.25 502a10 10 0 0 0-13.48 4.26c-10.15 19.52-20.92 52.56-21.37 54a10 10 0 0 0 6.43 12.59 9.73 9.73 0 0 0 3.08 0.5 10 10 0 0 0 9.51-6.92c0.11-0.33 10.7-32.85 20.09-50.9a10 10 0 0 0-4.26-13.53zM276.44 268.53H260a10 10 0 0 0 0 20h16.4a10 10 0 1 0 0-20z" fill="#FFFFFF" p-id="1872"></path><path d="M499 255.87s-137.12 322.53-147.23 358c-26.35 92.33 60.79 196.32 156.28 157.53 55.23-22.44 94.32-50.19 150.48-122.93 28.74-37.23 93.56-140.74 93.56-177.4 0-55.3-13.82-211.3-13.82-211.3z" fill="#AEE8FF" p-id="1873"></path><path d="M448.25 639.65c-34.73-21.42-93.73 8.82-93.73 8.82-7.51 43.71 13.41 75.12 33.63 97.37 21.59 23.78 72.31 29.94 88.39 29.94s56.62-8.1 64.78-19.76c10.05-14.32-78.4-107.33-93.07-116.37zM724.48 535.11c4.07 4 21.82-48 26.14-52.79l-12-105.95c-0.7-0.08-102.27 72.78-14.14 158.74z" fill="#FFD952" p-id="1874"></path><path d="M435.98 139.04m28.07 0l282.58 0q28.07 0 28.07 28.07l0 56.28q0 28.07-28.07 28.07l-282.58 0q-28.07 0-28.07-28.07l0-56.28q0-28.07 28.07-28.07Z" fill="#FFD952" p-id="1875"></path><path d="M501.94 139.63h18v56.1h-18zM564 139.63h18v56.1h-18zM632.81 139.63h18v56.1h-18zM697.76 139.63h18v56.1h-18zM340.8 819.61l-14.74-10.34a4.3 4.3 0 0 0-0.84 2.23c-0.11-3.84-8.56-20.43-39.73-55.75-22.79-25.82-44.75-46.88-49.86-50-25-15.43-72.59 1.88-88.81 9.84l-7.94-16.15c2.75-1.35 67.68-32.76 106.2-9 8.83 5.45 33.35 30.32 51.95 51.23 19.11 21.48 42.56 50.32 45.74 65.73 1 4.79 0.34 8.91-1.97 12.21zM548.69 761.19L534 750.86a4.15 4.15 0 0 0-0.84 2.23c-0.11-3.84-8.56-20.43-39.73-55.76-22.79-25.82-44.75-46.87-49.86-50-15.14-9.34-38-6.07-54.54-1.68a197.42 197.42 0 0 0-34.38 12.83l-8.19-16c2.76-1.42 68-34.25 106.55-10.46 8.83 5.45 33.35 30.33 52 51.24 19.11 21.47 42.56 50.31 45.74 65.72 0.92 4.8 0.25 8.92-2.06 12.21z" p-id="1876"></path><path d="M746.62 260.45H464.05A37.11 37.11 0 0 1 427 223.38V167.1a37.11 37.11 0 0 1 37.05-37.1h282.57a37.11 37.11 0 0 1 37.07 37.07v56.28a37.11 37.11 0 0 1-37.07 37.1zM464.05 148A19.09 19.09 0 0 0 445 167.1v56.28a19.09 19.09 0 0 0 19.07 19.07h282.55a19.09 19.09 0 0 0 19.07-19.07V167.1a19.09 19.09 0 0 0-19.07-19.1zM712.84 546.69c-27.39-31.38-54.39-79.53-27.49-130.68 8.85-16.84 21.43-29.47 30.42-37.11a138.41 138.41 0 0 1 12.57-9.52c5.53-3.68 7.6-4.84 11-4.45l-2.06 17.88a8.82 8.82 0 0 0 4.93-0.84c-0.41 0.21-41 23.79-48.67 64.46-5.19 27.71 5.88 57.46 32.9 88.43z" p-id="1877"></path><path d="M466.74 788.76a112.78 112.78 0 0 1-23.29-2.45c-20.45-4.31-40.12-14.55-56.81-29.52a147.58 147.58 0 0 1-41.86-65.36c-8.43-26.62-9-54.31-1.65-80.07 10.13-35.49 137.23-347.57 142.64-360.84L488 245l253.36-2.61 0.92 8.07c0.77 6.73 18.78 165.45 18.78 220.63 0 41.05-69.15 148.85-95.44 182.9C606 731.27 565.41 757.81 511.43 779.73a118 118 0 0 1-44.69 9.03z m33.44-525.91c-17.49 43-130.6 321.41-139.74 353.45-12.61 44.18 2.75 95.25 38.23 127.09 30.57 27.44 69.2 34.61 106 19.67 51.06-20.74 89.56-46 146.75-120.09 13.07-16.94 36.43-51.65 56.84-87.84 22.14-39.27 34.84-69.91 34.84-84.06 0-47.19-14-176.86-17.76-210.53z" p-id="1878"></path><path d="M687.15 288.43a10 10 0 0 0-8.3 11.45c0 0.29 4.62 29.6 2.34 68.58a10 10 0 0 0 9.4 10.57h0.59a10 10 0 0 0 10-9.42c2.4-41.13-2.35-71.61-2.56-72.89a10 10 0 0 0-11.47-8.29zM437.88 597.17c-10.89-2.12-33.48-0.73-36-0.56a10 10 0 1 0 1.3 20c8.6-0.56 24.61-1 30.91 0.23a10.56 10.56 0 0 0 1.91 0.16 10 10 0 0 0 1.89-19.81zM733.85 213.07H687a10 10 0 0 0 0 20h46.84a10 10 0 0 0 0-20zM658.93 213.07h-16.4a10 10 0 0 0 0 20h16.4a10 10 0 0 0 0-20z" fill="#FFFFFF" p-id="1879"></path><path d="M369.92 712.88q-4.85 0-10-0.34l1.18-18c66.24 4.36 88.12-40.26 89-42.17l16.36 7.63c-0.28 0.61-7.07 15.09-23.72 28.69-13.87 11.31-37.42 24.19-72.82 24.19zM164.05 772.34c-3.23 0-6.56-0.1-10-0.33l1.18-18c66.24 4.35 88.12-40.27 89-42.17l16.33 7.57c-0.28 0.61-7.07 15.09-23.71 28.69-13.85 11.38-37.4 24.24-72.8 24.24z" p-id="1880"></path></svg>