<?xml version="1.0" standalone="no"?><!DOCTYPE svg PUBLIC "-//W3C//DTD SVG 1.1//EN" "http://www.w3.org/Graphics/SVG/1.1/DTD/svg11.dtd"><svg t="1582522847785" class="icon" viewBox="0 0 1024 1024" version="1.1" xmlns="http://www.w3.org/2000/svg" p-id="9057" xmlns:xlink="http://www.w3.org/1999/xlink" width="200" height="200"><defs><style type="text/css"></style></defs><path d="M753.2 359.3c0-73.9-31.7-140.4-82.2-186.7" fill="#FFFFFF" p-id="9058"></path><path d="M753.2 367.3c-4.4 0-8-3.6-8-8 0-35-7.2-68.8-21.5-100.4-13.8-30.6-33.3-57.6-58.2-80.3-3.3-3-3.5-8-0.5-11.3 3-3.3 8-3.5 11.3-0.5 26.5 24.2 47.3 53 61.9 85.6 15.2 33.7 22.9 69.7 22.9 107 0.1 4.3-3.4 7.9-7.9 7.9z" p-id="9059"></path><path d="M753.2 740.3v-34.2c0-8.7 3.5-17.1 9.6-23.2l117.1-117.1c30.5-30.5 30.5-79.9 0-110.4" fill="#FFFFFF" p-id="9060"></path><path d="M753.2 748.3c-4.4 0-8-3.6-8-8v-34.2c0-10.9 4.2-21.2 12-28.9l117.1-117.1c27.3-27.3 27.3-71.8 0-99.1-3.1-3.1-3.1-8.2 0-11.3 3.1-3.1 8.2-3.1 11.3 0 33.6 33.6 33.6 88.2 0 121.7L768.5 688.5c-4.7 4.7-7.3 10.9-7.3 17.6v34.2c0 4.4-3.5 8-8 8z" p-id="9061"></path><path d="M213.6 946.2c13 8.8 28.6 13.9 45.5 13.9h482.4c44.9 0 81.3-36.4 81.3-81.3 0-22.5-9.1-42.8-23.8-57.5" fill="#FFFFFF" p-id="9062"></path><path d="M741.4 968.1H259.1c-17.9 0-35.2-5.3-49.9-15.3-3.7-2.5-4.6-7.4-2.2-11.1 2.5-3.7 7.4-4.6 11.1-2.2 12.1 8.2 26.3 12.5 41 12.5h482.4c40.4 0 73.3-32.9 73.3-73.3 0-19.6-7.6-38-21.5-51.8-3.1-3.1-3.1-8.2 0-11.3 3.1-3.1 8.2-3.1 11.3 0 16.9 16.9 26.2 39.3 26.2 63.2 0 49.3-40.1 89.3-89.4 89.3z" p-id="9063"></path><path d="M785.4 416.8c-26.8-26.8-70.3-26.8-97.2 0l-5.7 5.7c-3.2 3.2-8.6 0.9-8.6-3.6v-86.8c0-123-99.7-222.7-222.7-222.7-123 0-222.7 99.7-222.7 222.7v385.7h445.3v-80.5c0-7.7 3-15 8.5-20.4l103-103c26.9-26.7 26.9-70.2 0.1-97.1z" fill="#FFC7CB" p-id="9064"></path><path d="M704.7 763.1h-522V316.9c0-69.7 27.1-135.3 76.4-184.5S374 55.9 443.7 55.9c69.7 0 135.3 27.1 184.5 76.4s76.4 114.8 76.4 184.5V410l2.6-2.6c33.6-33.6 88.2-33.6 121.7 0 33.6 33.6 33.6 88.2 0 121.7L712 646.1c-4.7 4.7-7.3 10.9-7.3 17.6v99.4z m-506-16h490v-83.4c0-10.9 4.2-21.2 12-28.9l117.1-117.1c27.3-27.3 27.3-71.8 0-99.1-27.3-27.3-71.8-27.3-99.1 0l-6.5 6.5c-3.9 3.9-9.8 5.1-15 3-5.2-2.1-8.5-7.1-8.5-12.7v-98.6c0-65.4-25.5-127-71.8-173.2-46.3-46.3-107.8-71.8-173.2-71.8s-127 25.5-173.2 71.8-71.8 107.8-71.8 173.2v430.3z" p-id="9065"></path><path d="M708.7 917.7h-530c-31.8 0-57.5-25.8-57.5-57.5v-47.6c0-31.8 25.8-57.5 57.5-57.5h529.9c31.8 0 57.5 25.8 57.5 57.5v47.6c0.1 31.8-25.6 57.5-57.4 57.5z" fill="#FFFFFF" p-id="9066"></path><path d="M708.7 925.7h-530c-36.1 0-65.5-29.4-65.5-65.5v-47.6c0-36.1 29.4-65.5 65.5-65.5h529.9c36.1 0 65.5 29.4 65.5 65.5v47.6c0.1 36.1-29.3 65.5-65.4 65.5z m-530-162.6c-27.3 0-49.5 22.2-49.5 49.5v47.6c0 27.3 22.2 49.5 49.5 49.5h529.9c27.3 0 49.5-22.2 49.5-49.5v-47.6c0-27.3-22.2-49.5-49.5-49.5H178.7z" p-id="9067"></path><path d="M481.9 483.1l-10.7-10.5-10.5 10.7c-23.9 24.4-63.1 24.7-87.4 0.8-24.4-23.9-24.7-63.1-0.8-87.4l27.5-28 26.3-26.8 43.3-44.1 22.7 22.3 21.4 21 26.8 26.3 28 27.5c24.4 23.9 24.7 63.1 0.8 87.4-23.9 24.3-63.1 24.7-87.4 0.8z" fill="#FFFFFF" p-id="9068"></path><path d="M397.1 529.3c-18.4 0-35.7-7.1-48.9-20-27.5-27-27.9-71.3-0.9-98.7l97.1-98.9c3.1-3.2 8.2-3.2 11.3-0.1 3.2 3.1 3.2 8.2 0.1 11.3l-97.1 98.9c-10.1 10.3-15.5 23.8-15.4 38.2s5.9 27.8 16.1 37.9c10.3 10.1 23.8 15.6 38.2 15.4 14.4-0.1 27.8-5.9 37.9-16.1l16.1-16.4 16.4 16.1c21.2 20.8 55.3 20.5 76.1-0.7 20.8-21.2 20.5-55.3-0.7-76.1l-54.8-53.8c-3.2-3.1-3.2-8.2-0.1-11.3 3.1-3.2 8.2-3.2 11.3-0.1l54.8 53.8c27.5 27 27.9 71.3 0.9 98.7-13.1 13.3-30.5 20.7-49.2 20.9-18.6 0.2-36.2-6.9-49.6-20l-5-4.9-4.9 5c-13.1 13.3-30.5 20.7-49.2 20.9h-0.5z" p-id="9069"></path></svg>