<?xml version="1.0" standalone="no"?><!DOCTYPE svg PUBLIC "-//W3C//DTD SVG 1.1//EN" "http://www.w3.org/Graphics/SVG/1.1/DTD/svg11.dtd"><svg t="1582522855132" class="icon" viewBox="0 0 1024 1024" version="1.1" xmlns="http://www.w3.org/2000/svg" p-id="9195" xmlns:xlink="http://www.w3.org/1999/xlink" width="200" height="200"><defs><style type="text/css"></style></defs><path d="M333.9 312c-6.9 0-12.9-4.7-14.6-11.4l-23.8-96.8c-3.6-14.5-0.3-29.5 8.9-41.2 9.2-11.7 23-18.4 37.9-18.4h405.2c14.9 0 28.7 6.7 37.9 18.4s12.4 26.7 8.9 41.2l-23.8 96.8c-1.7 6.7-7.7 11.4-14.6 11.4h-422z" fill="#FFFECA" p-id="9196"></path><path d="M747.6 159.1c21.5 0 37.3 20.2 32.2 41.1L756 297H333.9l-23.8-96.8c-5.1-20.9 10.7-41.1 32.2-41.1h405.3m0-30.1H342.3c-19.5 0-37.7 8.8-49.7 24.2-12.1 15.4-16.3 35.1-11.6 54.1l23.8 96.8c3.3 13.4 15.4 22.9 29.2 22.9h422c13.8 0 25.9-9.5 29.2-22.9l23.8-96.8c4.7-19 0.4-38.7-11.6-54.1-12.2-15.3-30.3-24.2-49.8-24.2z" fill="#00AC9A" p-id="9197"></path><path d="M571.1 216.6m-21 0a21 21 0 1 0 42 0 21 21 0 1 0-42 0Z" fill="#FFE67B" opacity=".68" p-id="9198"></path><path d="M315.4 165.7m-21 0a21 21 0 1 0 42 0 21 21 0 1 0-42 0Z" fill="#FFE67B" opacity=".68" p-id="9199"></path><path d="M393.3 340.8m-21 0a21 21 0 1 0 42 0 21 21 0 1 0-42 0Z" fill="#FFE67B" opacity=".68" p-id="9200"></path><path d="M649 278.5m-21 0a21 21 0 1 0 42 0 21 21 0 1 0-42 0Z" fill="#FFE67B" opacity=".68" p-id="9201"></path><path d="M670.1 419.3m-21 0a21 21 0 1 0 42 0 21 21 0 1 0-42 0Z" fill="#FFE67B" opacity=".68" p-id="9202"></path><path d="M388.8 419.3m-21 0a21 21 0 1 0 42 0 21 21 0 1 0-42 0Z" fill="#FFE67B" opacity=".68" p-id="9203"></path><path d="M681.3 158.2m-21 0a21 21 0 1 0 42 0 21 21 0 1 0-42 0Z" fill="#FFE67B" opacity=".68" p-id="9204"></path><path d="M757.5 244.9m-21 0a21 21 0 1 0 42 0 21 21 0 1 0-42 0Z" fill="#FFE67B" opacity=".68" p-id="9205"></path><path d="M740.8 345.4m-21 0a21 21 0 1 0 42 0 21 21 0 1 0-42 0Z" fill="#FFE67B" opacity=".68" p-id="9206"></path><path d="M583.6 377.2m-21 0a21 21 0 1 0 42 0 21 21 0 1 0-42 0Z" fill="#FFE67B" opacity=".68" p-id="9207"></path><path d="M387.4 233.5m-21 0a21 21 0 1 0 42 0 21 21 0 1 0-42 0Z" fill="#FFE67B" opacity=".68" p-id="9208"></path><path d="M460.5 165.7m-21 0a21 21 0 1 0 42 0 21 21 0 1 0-42 0Z" fill="#FFE67B" opacity=".68" p-id="9209"></path><path d="M494.7 278.5m-21 0a21 21 0 1 0 42 0 21 21 0 1 0-42 0Z" fill="#FFE67B" opacity=".68" p-id="9210"></path><path d="M488.2 408m-21 0a21 21 0 1 0 42 0 21 21 0 1 0-42 0Z" fill="#FFE67B" opacity=".68" p-id="9211"></path><path d="M747.6 159.1c21.5 0 37.3 20.2 32.2 41.1L756 297H333.9l-23.8-96.8c-5.1-20.9 10.7-41.1 32.2-41.1h405.3m0-30.1H342.3c-19.5 0-37.7 8.8-49.7 24.2-12.1 15.4-16.3 35.1-11.6 54.1l23.8 96.8c3.3 13.4 15.4 22.9 29.2 22.9h422c13.8 0 25.9-9.5 29.2-22.9l23.8-96.8c4.7-19 0.4-38.7-11.6-54.1-12.2-15.3-30.3-24.2-49.8-24.2z" fill="#00AC9A" p-id="9212"></path><path d="M491.4 892.4c-63 0-122.4-24.7-167.2-69.5-40.7-40.7-64.8-93.5-68.9-150-7.2 1.9-14.6 2.9-22.2 2.9-16.2 0-32-4.6-45.7-13.3-19.3-12.2-32.7-31.3-37.7-53.7-5-22.4-1.1-45.3 11.1-64.5l99.7-163.1c13.3-23.4 24.9-42.7 43.2-59.7 6.6-7.1 14.3-13.1 22.9-17.6 24.5-15.4 52.6-23.6 81.5-23.6h273.8c84.6 0 153.4 68.8 153.4 153.4v222c0 63-24.7 122.4-69.5 167.2-44.8 44.8-104.2 69.5-167.2 69.5H491.4z" fill="#C5F9EF" p-id="9213"></path><path d="M681.8 295.2c76.1 0 138.4 62.3 138.4 138.4v222c0 122-99.8 221.7-221.7 221.7H491.4c-122 0-221.7-99.8-221.7-221.7v-5c-11.1 6.6-23.8 10.1-36.6 10.1-12.9 0-26-3.5-37.6-10.9-32.8-20.8-42.7-64.7-21.9-97.6l99.9-163.4c13.5-23.8 24.2-41.3 40.9-56.8 5.7-6.3 12.4-11.4 19.7-15.2 21.4-13.6 46.8-21.6 74-21.6h273.7m0-30H408.1c-31.5 0-62.3 8.8-89 25.6-9.7 5.2-18.5 11.9-26 20-19.6 18.3-31.7 38.4-45.5 62.7L148 536.3c-29.6 46.9-15.6 109.1 31.3 138.9 16.1 10.2 34.7 15.6 53.7 15.6 3 0 5.9-0.1 8.9-0.4 3 21.7 8.9 42.8 17.5 63.1 12.7 29.9 30.9 56.9 54 80s50.1 41.3 80 54c31.1 13.2 64 19.9 97.8 19.9h107.1c33.9 0 66.8-6.7 97.8-19.9 29.9-12.7 56.9-30.9 80-54s41.3-50.1 54-80c13.2-31.1 19.9-64 19.9-97.8v-222c0-22.7-4.5-44.7-13.3-65.5-8.5-20-20.7-38-36.1-53.5-15.5-15.5-33.5-27.6-53.5-36.1-20.6-9-42.6-13.4-65.3-13.4z" fill="#00AC9A" p-id="9214"></path><path d="M681.8 295.2h-36.2c76.1 0 138.4 62.3 138.4 138.4v222c0 122-99.8 221.7-221.7 221.7h36.2c122 0 221.7-99.8 221.7-221.7v-222c0-76.1-62.3-138.4-138.4-138.4z" fill="#89DBCC" p-id="9215"></path><path d="M195.4 649.8zM334.1 316.8c-7.3 3.8-14 8.9-19.7 15.2-16.7 15.4-27.5 33-40.9 56.8l-99.9 163.4c-20.8 32.8-11 76.8 21.9 97.6-18.9-55.2 7.7-79.2 22.1-103.9s101.9-170 123.4-198.2c35.1-46 105.6-52.5 105.6-52.5h-38.5c-27.2 0-52.6 7.9-74 21.6z" fill="#F3FFFB" p-id="9216"></path><path d="M644.6 461.2c-7.3-0.3-14 2.2-19.1 6.5-3.8 3.1-8.4 5-13.3 5h-2.7c-4.9 0-9.7-1.6-13.5-4.8-4.9-4.2-11.2-6.7-18.2-6.7s-13.3 2.5-18.2 6.7c-3.7 3.2-8.6 4.8-13.5 4.8h-2.4c-4.9 0-9.7-1.6-13.5-4.8-4.9-4.2-11.2-6.7-18.2-6.7-6.9 0-13.3 2.5-18.2 6.7-3.7 3.2-8.6 4.8-13.5 4.8h-2.7c-4.9 0-9.6-1.9-13.3-5-5.1-4.3-11.8-6.8-19.1-6.5-14.2 0.6-25.9 12-26.8 26.2-1 16.3 11.9 29.8 28 29.8 6.9 0 13.3-2.5 18.2-6.7 3.7-3.2 8.6-4.8 13.5-4.8h2.4c4.9 0 9.7 1.6 13.5 4.8 4.9 4.2 11.2 6.7 18.2 6.7 6.9 0 13.3-2.5 18.2-6.7 3.7-3.2 8.6-4.8 13.5-4.8h2.4c4.9 0 9.7 1.6 13.5 4.8 4.9 4.2 11.2 6.7 18.2 6.7s13.3-2.5 18.2-6.7c3.7-3.2 8.6-4.8 13.5-4.8h2.4c4.9 0 9.7 1.6 13.5 4.8 4.9 4.2 11.2 6.7 18.2 6.7 16.1 0 29-13.5 28-29.8-1.2-14.1-13-25.6-27.2-26.2zM644.6 358c-7.3-0.3-14 2.2-19.1 6.5-3.8 3.1-8.4 5-13.3 5h-2.7c-4.9 0-9.7-1.6-13.5-4.8-4.9-4.2-11.2-6.7-18.2-6.7s-13.3 2.5-18.2 6.7c-3.7 3.2-8.6 4.8-13.5 4.8h-2.4c-4.9 0-9.7-1.6-13.5-4.8-4.9-4.2-11.2-6.7-18.2-6.7-6.9 0-13.3 2.5-18.2 6.7-3.7 3.2-8.6 4.8-13.5 4.8h-2.7c-4.9 0-9.6-1.9-13.3-5-5.1-4.3-11.8-6.8-19.1-6.5-14.2 0.6-25.9 12-26.8 26.2-1 16.3 11.9 29.8 28 29.8 6.9 0 13.3-2.5 18.2-6.7 3.7-3.2 8.6-4.8 13.5-4.8h2.4c4.9 0 9.7 1.6 13.5 4.8 4.9 4.2 11.2 6.7 18.2 6.7 6.9 0 13.3-2.5 18.2-6.7 3.7-3.2 8.6-4.8 13.5-4.8h2.4c4.9 0 9.7 1.6 13.5 4.8 4.9 4.2 11.2 6.7 18.2 6.7s13.3-2.5 18.2-6.7c3.7-3.2 8.6-4.8 13.5-4.8h2.4c4.9 0 9.7 1.6 13.5 4.8 4.9 4.2 11.2 6.7 18.2 6.7 16.1 0 29-13.5 28-29.8-1.2-14.2-13-25.6-27.2-26.2z" fill="#3DC4B4" p-id="9217"></path></svg>