<?xml version="1.0" standalone="no"?><!DOCTYPE svg PUBLIC "-//W3C//DTD SVG 1.1//EN" "http://www.w3.org/Graphics/SVG/1.1/DTD/svg11.dtd"><svg t="1582522588528" class="icon" viewBox="0 0 1024 1024" version="1.1" xmlns="http://www.w3.org/2000/svg" p-id="1579" xmlns:xlink="http://www.w3.org/1999/xlink" width="200" height="200"><defs><style type="text/css"></style></defs><path d="M337.776411 260.924275v305.358814l-123.561406 33.068627C113.053821 626.428656 52.439439 731.363231 79.516378 832.524416l7.946991 29.729747c27.07694 101.115446 132.011515 161.718394 233.172699 134.664324l439.165548-117.54685c89.909618-24.012489 147.779716-109.622728 140.541666-199.372262v-419.0751" fill="#FFFFFF" p-id="1580"></path><path d="M337.776411 320.383771v305.358814l-123.561406 33.068627C113.053821 685.888152 52.439439 727.932876 79.516378 829.09406l7.946991 29.729748c27.07694 101.115446 132.011515 161.718394 233.172699 134.664323l439.165548-117.546849c89.909618-24.012489 147.779716-109.622728 140.541666-199.372263v-356.185248" fill="#92E0D1" p-id="1581"></path><path d="M688.999078 806.842487l-345.230979 92.425212a390.771236 390.771236 0 0 1 1.440749 33.423098 387.374041 387.374041 0 0 1-4.470897 58.8649l359.981508-96.358686a235.563657 235.563657 0 0 1-12.086286-74.67884c-0.034304-4.585242 0.114345-9.147615 0.365905-13.675684zM688.59887 729.042024a236.309188 236.309188 0 0 0 4.448028 45.738074c19.804586-100.623762 103.642475-178.206969 207.296384-188.600947v-91.476147c-118.907557 11.914768-211.744412 112.286971-211.744412 234.33902z" fill="#5FB2A2" p-id="1582"></path><path d="M379.237975 20.582133h480.249772c50.521133 0 91.476147 40.955015 91.476148 91.476147v57.172592c0 50.521133-40.955015 91.476147-91.476148 91.476147h-480.249772c-50.521133 0-91.476147-40.955015-91.476148-91.476147V112.05828c0-50.521133 40.955015-91.476147 91.476148-91.476147zM689.090554 831.083666a248.421773 248.421773 0 0 0 8.587323 64.902327l62.078001-16.614356c89.909618-24.012489 147.779716-109.622728 140.541666-199.372262V585.561687c-119.490717 17.895021-211.206989 121.000074-211.20699 245.521979zM171.106871 616.777922C96.645287 658.193748 56.498693 746.708355 79.47064 832.524416l7.946991 29.729747c27.122678 101.115446 132.057253 161.718394 233.218437 134.664324l16.85448-4.505201a399.039536 399.039536 0 0 0 3.270272-50.986517c0-134.447067-67.097754-253.194541-169.653949-324.648847z" fill="#FFCD5F" p-id="1583"></path><path d="M332.229526 1014.177749c-1.385864 0-2.791166-0.140645-4.201042-0.433369-11.13036-2.309773-18.281508-13.203438-15.972879-24.333798a318.02826 318.02826 0 0 0 6.614869-64.632472c0.109771-93.916273-38.457716-185.265497-105.81389-250.662938-0.505406-0.493971-2.595636-2.579627-18.026518-18.000219-7.860088-7.854371-16.755-16.744709-17.638888-17.618306-8.047614-7.848653-8.314038-20.731925-0.548857-28.906463 7.829215-8.239714 20.856562-8.577032 29.097419-0.747817 0.340749 0.323597 0.411643 0.392204 18.188888 18.156871 7.862375 7.857801 16.763004 16.751569 17.641175 17.61945 37.676738 36.590459 67.134344 79.672294 87.563255 128.057458 20.434628 48.400029 30.763428 99.578647 30.702826 152.115685a359.178805 359.178805 0 0 1-7.472458 72.980814c-2.018192 9.719341-10.58379 16.40396-20.1339 16.405104zM697.716755 916.573843c-8.774849 0-16.903649-5.655513-19.64679-14.474957a262.342156 262.342156 0 0 1-11.848448-78.250983c0-111.67065 70.363452-211.290461 175.08992-247.871773 1.118296-0.391061 1.118296-0.391061 25.902614-6.636594 9.312272-2.346363 20.840553-5.250731 22.574027-5.703538 10.444289-2.931811 21.476312 2.780875 25.024443 13.171422 3.673911 10.756451-2.069648 22.456251-12.827243 26.129018-1.048545 0.3579-1.048545 0.3579-24.713424 6.321002-9.111024 2.296051-20.252819 5.103226-23.133174 5.843039C766.326152 646.126901 707.385784 729.922482 707.385784 823.868485a221.308243 221.308243 0 0 0 9.990338 66.005758c3.376613 10.854788-2.687112 22.38993-13.540756 25.7654a20.593568 20.593568 0 0 1-6.118611 0.9342z m157.167455-301.736358l-0.28815 0.101767c0.142931-0.049168 0.238981-0.083472 0.28815-0.101767z m34.811248-51.175187c-0.567152 0.157796-0.90447 0.280146-1.011955 0.316736 0.337318-0.114345 0.674637-0.220686 1.011955-0.316736zM410.614293 266.561493c-11.367055 0-20.582133-9.215078-20.582133-20.582133V21.222466c0-11.367055 9.215078-20.582133 20.582133-20.582133s20.582133 9.215078 20.582133 20.582133v224.756894c0 11.367055-9.215078 20.582133-20.582133 20.582133zM822.256955 266.561493c-11.367055 0-20.582133-9.215078-20.582133-20.582133V21.222466c0-11.367055 9.215078-20.582133 20.582133-20.582133s20.582133 9.215078 20.582134 20.582133v224.756894c0 11.367055-9.215078 20.582133-20.582134 20.582133zM685.042735 266.561493c-11.367055 0-20.582133-9.215078-20.582133-20.582133V21.222466c0-11.367055 9.215078-20.582133 20.582133-20.582133s20.582133 9.215078 20.582133 20.582133v224.756894c0 11.367055-9.215078 20.582133-20.582133 20.582133zM547.828514 266.561493c-11.367055 0-20.582133-9.215078-20.582133-20.582133V21.222466c0-11.367055 9.215078-20.582133 20.582133-20.582133s20.582133 9.215078 20.582133 20.582133v224.756894c0 11.367055-9.215078 20.582133-20.582133 20.582133z" fill="#684F50" p-id="1584"></path><path d="M859.487747 281.289153h-480.249772c-61.789851 0-112.05828-50.26843-112.058281-112.058281V112.05828c0-61.789851 50.26843-112.05828 112.058281-112.05828h480.249772c61.788707 0 112.05828 50.26843 112.058281 112.05828v57.172592c0 61.789851-50.269573 112.05828-112.058281 112.058281z m-480.249772-240.124887c-39.091188 0-70.894014 31.802826-70.894014 70.894014v57.172592c0 39.091188 31.802826 70.894014 70.894014 70.894014h480.249772c39.091188 0 70.894014-31.802826 70.894014-70.894014V112.05828c0-39.091188-31.802826-70.894014-70.894014-70.894014h-480.249772z" fill="#684F50" p-id="1585"></path><path d="M271.473356 1023.997713c-36.608754 0.001143-72.810439-9.64616-105.499441-28.52455-48.931735-28.260412-83.875623-73.680606-98.392887-127.895088L59.631751 837.83918C45.116773 783.608689 52.687568 726.791711 80.953697 677.86112c28.266129-48.931735 73.702332-83.875623 127.939683-98.391744l108.299754-28.985361V260.924275c0-11.367055 9.215078-20.582133 20.582133-20.582133s20.582133 9.215078 20.582134 20.582133v305.358814a20.582133 20.582133 0 0 1-15.261652 19.882341l-123.561406 33.068627c-43.61354 11.6735-80.170839 39.806989-102.936965 79.2172-22.766126 39.411355-28.874446 85.135707-17.199803 128.751534l7.949278 29.736608C131.558302 947.349849 224.855968 1001.2293 315.319017 977.035003l439.160974-117.545706c79.240069-21.163007 131.952055-95.952761 125.348621-177.834204a20.479222 20.479222 0 0 1-0.067464-1.654575v-419.075099c0-11.367055 9.215078-20.582133 20.582134-20.582133s20.582133 9.215078 20.582133 20.582133v418.267822c3.692206 48.234229-9.622147 96.818354-37.53152 136.904345-28.441078 40.85096-70.446924 70.384035-118.280945 83.159822L325.957693 1016.799684c-18.002506 4.815076-36.296592 7.196886-54.484337 7.198029z" fill="#684F50" p-id="1586"></path><path d="M489.489601 449.044972c-15.156454 0-27.442844-12.28639-27.442844-27.442844v-33.800436c0-15.156454 12.28639-27.442844 27.442844-27.442845s27.442844 12.28639 27.442844 27.442845v33.800436c-0.001143 15.156454-12.28639 27.442844-27.442844 27.442844zM749.053169 449.044972c-15.156454 0-27.442844-12.28639-27.442845-27.442844v-33.800436c0-15.156454 12.28639-27.442844 27.442845-27.442845s27.442844 12.28639 27.442844 27.442845v33.800436c0 15.156454-12.28639 27.442844-27.442844 27.442844zM619.934587 469.121699c-4.046676 0-8.150525-0.428794-12.264665-1.320686-22.06176-4.788776-39.411355-22.137228-44.198987-44.200131-2.409253-11.108635 4.641271-22.067477 15.748762-24.479017 11.109778-2.406966 22.068621 4.641271 24.479017 15.749905a16.636081 16.636081 0 0 0 12.701463 12.701463c8.950941 1.945012 17.805832-3.757383 19.747414-12.702606 2.41154-11.109778 13.373813-18.155728 24.48016-15.747619 11.108635 2.410396 18.159159 13.370382 15.747619 24.479017-5.862478 27.012906-29.855528 45.519674-56.440783 45.519674z" fill="#684F50" p-id="1587"></path><path d="M830.192511 474.886984c-9.472355 0-17.151778-7.679423-17.151777-17.151778v-82.031235c0-9.472355 7.679423-17.151778 17.151777-17.151778s17.151778 7.679423 17.151778 17.151778v82.031235c0 9.472355-7.678279 17.151778-17.151778 17.151778zM830.192511 542.773719c-9.472355 0-17.151778-7.679423-17.151777-17.151777v-15.287951c0-9.472355 7.679423-17.151778 17.151777-17.151778s17.151778 7.679423 17.151778 17.151778v15.287951c0 9.472355-7.678279 17.151778-17.151778 17.151777z" fill="#FFFFFF" p-id="1588"></path></svg>