<?xml version="1.0" standalone="no"?><!DOCTYPE svg PUBLIC "-//W3C//DTD SVG 1.1//EN" "http://www.w3.org/Graphics/SVG/1.1/DTD/svg11.dtd"><svg t="1582522826737" class="icon" viewBox="0 0 1024 1024" version="1.1" xmlns="http://www.w3.org/2000/svg" p-id="7908" xmlns:xlink="http://www.w3.org/1999/xlink" width="200" height="200"><defs><style type="text/css"></style></defs><path d="M362.9 785.7c-5.4-21.3-23.5-36.8-43-36.8-14.8 0-28.4 9.1-38.4 25.6-3.4 5.6-9.5 9-16 9-6.6 0-12.6-3.4-16-9-10-16.5-23.6-25.6-38.4-25.6-19.5 0-37.6 15.5-43 36.8-4.1 16.3-8.9 73 97.5 134.2C371.8 858.7 367 802 362.9 785.7zM856.1 693.9c-5.4-21.3-23.5-36.8-43-36.8-14.8 0-28.4 9.1-38.4 25.6-3.4 5.6-9.5 9-16 9-6.6 0-12.6-3.4-16-9-10-16.5-23.6-25.6-38.4-25.6-19.5 0-37.6 15.5-43 36.8-4.1 16.3-8.9 73 97.5 134.2 106.2-61.2 101.4-118 97.3-134.2z" fill="#FDB9D0" p-id="7909"></path><path d="M895.4 706.2V84.4c0-0.1 0-4-1.6-7.6-4.2-9.5-15.3-13.7-24.8-9.5L375.8 286.9c-7.1 3.2-11.3 10.2-11.1 17.5v421.3c-13-9.1-28.5-14.3-44.8-14.3-20.2 0-39.1 8.3-54.5 23.3-15.3-15-34.3-23.3-54.5-23.3-36.9 0-69.6 26.7-79.3 65.1-5.1 20-6.2 51.7 17.6 89.6 21.1 33.6 57.1 64.4 107.2 91.8 2.8 1.5 5.9 2.3 9 2.3 3.1 0 6.2-0.8 9-2.3 50.1-27.3 86.2-58.2 107.3-91.8 16.5-26.2 21-49.5 20.5-68V511.5L857.9 309v324.9c-13-9.1-28.5-14.3-44.8-14.3-20.2 0-39.1 8.3-54.5 23.3-15.3-15-34.3-23.3-54.5-23.3-36.9 0-69.6 26.8-79.3 65.1-5.1 20-6.2 51.7 17.6 89.6 21.1 33.6 57.1 64.4 107.2 91.8 2.8 1.5 5.9 2.3 9 2.3s6.2-0.8 9-2.3c50.1-27.3 86.2-58.2 107.3-91.8 16.4-26.3 20.9-49.6 20.5-68.1z m-727.5 79.5c5.4-21.3 23.5-36.8 43-36.8 14.8 0 28.4 9.1 38.4 25.6 3.4 5.6 9.5 9 16 9 6.6 0 12.6-3.4 16-9 10-16.5 23.7-25.6 38.4-25.6 19.5 0 37.6 15.5 43 36.8 4.1 16.3 8.9 73-97.5 134.2C159 858.7 163.8 802 167.9 785.7z m493.2-91.8c5.4-21.3 23.5-36.8 43-36.8 14.8 0 28.4 9.1 38.4 25.6 3.4 5.6 9.5 9 16 9 6.6 0 12.6-3.4 16-9 10-16.5 23.7-25.6 38.4-25.6 19.5 0 37.6 15.5 43 36.8 4.1 16.3 8.9 73-97.5 134.2-106.2-61.2-101.4-118-97.3-134.2zM402.2 470.5V316.2l455.7-203V268L402.2 470.5z" fill="#3EBAC4" p-id="7910"></path></svg>