<?xml version="1.0" standalone="no"?><!DOCTYPE svg PUBLIC "-//W3C//DTD SVG 1.1//EN" "http://www.w3.org/Graphics/SVG/1.1/DTD/svg11.dtd"><svg t="1582522687800" class="icon" viewBox="0 0 1024 1024" version="1.1" xmlns="http://www.w3.org/2000/svg" p-id="4183" xmlns:xlink="http://www.w3.org/1999/xlink" width="200" height="200"><defs><style type="text/css"></style></defs><path d="M822.744615 80.147692H613.415385a75.224615 75.224615 0 0 0-13.39077 1.181539 75.815385 75.815385 0 0 0-13.587692-1.181539H377.107692a78.769231 78.769231 0 0 0-78.76923 78.769231v285.341539a136.467692 136.467692 0 0 1-36.43077 93.144615l-90.978461 98.461538a183.729231 183.729231 0 0 0 134.892307 307.987693h11.027693a180.775385 180.775385 0 0 0 107.52-42.929231 180.184615 180.184615 0 0 0 118.153846 43.126154h11.027692a181.76 181.76 0 0 0 127.606154-62.818462l61.636923-70.892307 59.076923-68.135385 21.661539-25.009231a319.803077 319.803077 0 0 0 78.76923-209.723077V158.916923a78.769231 78.769231 0 0 0-79.556923-78.769231z m-445.636923 78.769231h209.329231v78.769231H377.107692zM437.956923 768l-32.689231 37.415385-19.692307 23.433846a78.769231 78.769231 0 0 1-9.058462 9.058461 104.763077 104.763077 0 0 1-174.670769-73.058461A105.156923 105.156923 0 0 1 228.824615 689.230769l90.978462-98.461538a215.236923 215.236923 0 0 0 57.304615-146.510769v-127.803077h209.329231v112.04923l-12.406154 6.892308c-4.726154 2.756923-9.452308 5.907692-14.375384 9.058462l-6.301539 4.332307-1.575384 1.181539-4.529231 3.544615c-4.529231 3.347692-9.058462 7.089231-13.390769 10.830769l-0.984616 0.984616a25.403077 25.403077 0 0 0-4.135384 3.741538c-2.166154 1.969231-4.135385 3.741538-6.104616 5.907693a341.661538 341.661538 0 0 0-11.618461 12.603076 195.741538 195.741538 0 0 0-21.858462 30.72 73.255385 73.255385 0 0 0-3.741538 6.695385 188.455385 188.455385 0 0 0-17.526154 45.292308 76.8 76.8 0 0 0-2.56 11.224615 92.16 92.16 0 0 0-1.772308 10.633846c0 3.544615-0.984615 7.286154-1.378461 11.224616a50.412308 50.412308 0 0 0 0 7.68 51.987692 51.987692 0 0 0 0 5.710769 139.027692 139.027692 0 0 0 0 18.116923 42.732308 42.732308 0 0 0 0 5.12c0 9.058462 1.181538 18.116923 2.56 27.766154 0 4.726154 1.378462 9.649231 2.363076 14.572308a27.963077 27.963077 0 0 0 0 3.938461 376.32 376.32 0 0 0 9.255385 37.021539z m148.086154-245.169231a237.686154 237.686154 0 0 1-5.12 35.249231 233.747692 233.747692 0 0 1-39.384615 89.796923c0-6.695385-0.984615-13.193846-0.984616-19.692308a132.726154 132.726154 0 0 1 0-15.556923v-6.104615c0-3.150769 0.984615-6.104615 1.575385-9.058462a111.261538 111.261538 0 0 1 3.347692-13.981538 101.809231 101.809231 0 0 1 5.12-13.587692 88.221538 88.221538 0 0 1 6.104615-12.209231v-1.378462a75.618462 75.618462 0 0 1 6.892308-10.633846 5.316923 5.316923 0 0 1 1.378462-1.575384 57.698462 57.698462 0 0 1 7.68-9.452308l2.166154-2.166154a73.255385 73.255385 0 0 1 11.224615-9.452308z m191.015385 125.44c0-6.695385-0.984615-13.193846-0.984616-19.692307a132.726154 132.726154 0 0 1 0-15.556924 122.092308 122.092308 0 0 1 2.166154-15.163076 111.261538 111.261538 0 0 1 3.347692-13.981539 101.809231 101.809231 0 0 1 5.12-13.587692 88.221538 88.221538 0 0 1 6.104616-12.209231v-1.378462a75.618462 75.618462 0 0 1 6.892307-10.633846 5.316923 5.316923 0 0 1 1.378462-1.575384 57.698462 57.698462 0 0 1 7.68-9.452308 11.224615 11.224615 0 0 1 2.166154-2.166154 73.255385 73.255385 0 0 1 9.649231-9.452308 242.018462 242.018462 0 0 1-43.52 125.046154z m45.686153-219.963077c-8.467692 4.529231-17.526154 9.846154-26.781538 15.95077l-6.301539 4.332307-1.575384 1.181539-4.529231 3.544615a193.575385 193.575385 0 0 0-18.510769 15.556923c-2.166154 1.969231-4.135385 3.741538-6.104616 5.907692a341.661538 341.661538 0 0 0-11.618461 12.603077 195.741538 195.741538 0 0 0-21.858462 30.72 73.255385 73.255385 0 0 0-3.741538 6.695385 199.089231 199.089231 0 0 0-19.692308 57.304615 92.16 92.16 0 0 0-1.772307 10.633847c0 3.544615-0.984615 7.286154-1.378462 11.224615a50.412308 50.412308 0 0 0 0 7.68 51.987692 51.987692 0 0 0 0 5.710769v23.433846c0 9.058462 1.181538 18.116923 2.56 27.766154 0 4.726154 1.378462 9.649231 2.363077 14.572308a374.153846 374.153846 0 0 0 10.043077 40.96l-92.553846 104.96a104.172308 104.172308 0 0 1-72.861539 36.036923 102.596923 102.596923 0 0 1-70.695384-22.449231l28.356923-32.689231 59.076923-68.135384 21.661538-25.009231a319.803077 319.803077 0 0 0 78.769231-209.723077v-190.621538h157.538462z m0-190.818461h-157.538461v-78.769231h157.538461z" fill="#1B334E" p-id="4184"></path><path d="M665.206154 316.455385v190.621538a319.803077 319.803077 0 0 1-78.769231 209.723077l-21.661538 25.009231-59.076923 68.135384-28.356924 32.689231a102.596923 102.596923 0 0 0 70.695385 22.449231 104.172308 104.172308 0 0 0 72.861539-36.036923l91.175384-104.763077a374.153846 374.153846 0 0 1-10.043077-40.96 309.622154 309.622154 0 0 1-4.923077-42.338462v-12.996923-10.436923a51.987692 51.987692 0 0 1 0-5.710769 50.412308 50.412308 0 0 1 0-7.68c0-3.938462 0-7.68 1.378462-11.224615a92.16 92.16 0 0 1 1.772308-10.633847 199.089231 199.089231 0 0 1 19.692307-57.304615 73.255385 73.255385 0 0 1 3.741539-6.695385A195.741538 195.741538 0 0 1 748.307692 487.581538a341.661538 341.661538 0 0 1 11.618462-12.603076c1.969231-2.166154 3.938462-3.938462 6.104615-5.907693a193.575385 193.575385 0 0 1 18.510769-15.556923l4.529231-3.544615 1.575385-1.181539 6.301538-4.332307c9.255385-6.104615 18.313846-11.421538 26.781539-15.95077v-112.04923zM466.116923 683.323077a309.622154 309.622154 0 0 1-4.923077-42.338462 42.732308 42.732308 0 0 1 0-5.12 139.027692 139.027692 0 0 1 0-18.116923 51.987692 51.987692 0 0 1 0-5.710769 50.412308 50.412308 0 0 1 0-7.68c0-3.938462 0-7.68 1.378462-11.224615a92.16 92.16 0 0 1 1.772307-10.633846 76.8 76.8 0 0 1 2.56-11.224616 188.455385 188.455385 0 0 1 17.526154-45.292308 73.255385 73.255385 0 0 1 3.741539-6.695384A195.741538 195.741538 0 0 1 512 487.581538a341.661538 341.661538 0 0 1 11.618462-12.603076c1.969231-2.166154 3.938462-3.938462 6.104615-5.907693a25.403077 25.403077 0 0 1 4.135385-3.741538l0.984615-0.984616c4.332308-3.741538 8.861538-7.483077 13.390769-10.830769l4.529231-3.544615 1.575385-1.181539 6.301538-4.332307c4.923077-3.150769 9.649231-6.301538 14.375385-9.058462l12.406153-6.892308v-112.04923H377.107692v127.803077A215.236923 215.236923 0 0 1 319.803077 590.769231l-90.978462 98.461538a105.156923 105.156923 0 0 0-27.56923 75.815385 104.566154 104.566154 0 0 0 174.670769 73.058461 78.769231 78.769231 0 0 0 9.058461-9.058461l19.692308-23.433846L437.956923 768l38.203077-43.913846a376.32 376.32 0 0 1-9.255385-37.021539 27.963077 27.963077 0 0 1-0.787692-3.741538z" fill="#81CDC5" p-id="4185"></path><path d="M810.535385 534.646154a57.698462 57.698462 0 0 0-7.68 9.452308 5.316923 5.316923 0 0 0-1.378462 1.575384 75.618462 75.618462 0 0 0-6.892308 10.633846v1.378462a88.221538 88.221538 0 0 0-6.104615 12.209231 101.809231 101.809231 0 0 0-5.12 13.587692 111.261538 111.261538 0 0 0-3.347692 13.981538 122.092308 122.092308 0 0 0-2.166154 15.163077 132.726154 132.726154 0 0 0 0 15.556923c0 6.301538 0 12.8 0.984615 19.692308a242.018462 242.018462 0 0 0 45.292308-125.44 73.255385 73.255385 0 0 0-9.649231 9.452308 11.224615 11.224615 0 0 0-3.938461 2.756923zM574.227692 534.646154a57.698462 57.698462 0 0 0-7.68 9.452308 5.316923 5.316923 0 0 0-1.378461 1.575384 75.618462 75.618462 0 0 0-6.892308 10.633846v1.378462a88.221538 88.221538 0 0 0-6.104615 12.209231 101.809231 101.809231 0 0 0-5.12 13.587692 111.261538 111.261538 0 0 0-3.347693 13.981538c0 2.953846-1.181538 5.907692-1.575384 9.058462v6.104615a132.726154 132.726154 0 0 0 0 15.556923c0 6.301538 0 12.8 0.984615 19.692308a233.747692 233.747692 0 0 0 39.384616-89.796923 237.686154 237.686154 0 0 0 5.12-35.249231 73.255385 73.255385 0 0 0-9.649231 9.452308zM665.206154 158.916923v78.769231h157.538461V158.72l-157.538461 0.196923zM377.107692 158.916923v78.769231h209.329231V158.72h-51.790769l-157.538462 0.196923z" fill="#E8A76D" p-id="4186"></path></svg>