<?xml version="1.0" standalone="no"?><!DOCTYPE svg PUBLIC "-//W3C//DTD SVG 1.1//EN" "http://www.w3.org/Graphics/SVG/1.1/DTD/svg11.dtd"><svg t="1582522864885" class="icon" viewBox="0 0 1024 1024" version="1.1" xmlns="http://www.w3.org/2000/svg" p-id="9343" xmlns:xlink="http://www.w3.org/1999/xlink" width="200" height="200"><defs><style type="text/css"></style></defs><path d="M758.3 477.5c-2.2 1.2-4.3 2.3-6.5 3.5 1.5 2.7 1.2 6.2-2.2 8-0.1 0.1-0.3 0.1-0.4 0.2-6.5 3.3-13 6.8-19.4 10.1 3.4 12.7 6.1 25.5 8.2 38.4 2.5-8.7 4.9-17.4 7.4-26.1 0.5-1.9 0.2-3.6-0.6-4.9 0.4-0.6 0.8-1.2 1-2.1 1.2-4.1 2.1-8.2 3-12.3-2 14.4-4.3 28.7-7.1 42.9-0.3 1.3-0.6 2.6-0.8 4 4.6-2.4 9.3-4.7 13.9-7.1 3.3-17.4 5.9-35 8.1-52.6-1.8-0.6-3.2-1.3-4.6-2zM419 400.3l5.7-13.8-5.1-9.6c-1.5-2.7-0.8-5.3 0.9-7.1-0.6-0.1-1.2-0.2-1.7-0.3-2.7 6.2-5.4 12.4-7.9 18.5-1.8 4.2-3.5 8.5-5.2 12.8l1.2 5.4c3.9-2.1 8-4 12.1-5.9zM392.8 478.3c1.9-7 3.9-13.9 6-20.8-1.6-8.7-3.1-17.5-4.5-26.2-6.1 17.9-11.6 36-16.3 54.3 5-2.5 9.9-4.9 14.8-7.3zM431.2 371.8c-0.1 0-0.3 0-0.4-0.1 0.1 0.1 0.1 0.3 0.2 0.4 0.1-0.1 0.2-0.2 0.2-0.3zM734.2 605.8c0-0.4 0-0.8 0.1-1.2 0.1-2 1-3.6 2.3-4.7-0.4-1.7-1.1-4.3-1.8-6.9-2.3-0.7-4.3-2.6-4.7-5.6-0.1-0.8-0.2-1.7-0.3-2.5-2.8 10.4-5.9 20.7-9.2 30.9 3.6 1.5 7.3 3 10.9 4.5l0.6 0.3c1.2-3.7 2.4-7.4 3.5-11.1-0.9-1-1.4-2.3-1.4-3.7zM750.4 552.8c-1 0.7-2 1.4-3 2-0.4 0.7-1 1.3-1.8 1.8-1.6 1.1-3.3 2.1-4.9 3.1 0.3 3.3 0.6 6.7 0.9 10 0.8 3.3 1.6 6.7 2.4 10 2.3-8.9 4.4-17.9 6.4-26.9zM752.4 458.8c-0.1 0.8-0.2 1.5-0.2 2.3 2.7 1.2 5.4 2.5 8.1 3.8-0.1-0.7 0-1.4 0.2-2.1-1.5-1.1-4.5-2.5-8.1-4zM474.1 438.8c6.1-3 12.2-6 18.4-9 5.5-13.6 10.8-27.3 16.3-41-4.7-1.2-9.4-2.3-14-3.4 0.6 2.8-0.6 6-4.2 6.9-9.1 2.4-17.9 5.3-26.4 8.6 3.2 12.6 6.6 25.2 9.9 37.9zM725.4 449.2c2.1 0.9 4.3 1.8 6.4 2.7 0-0.2 0.1-0.4 0.2-0.6-2.4-0.7-4.6-1.5-6.6-2.1zM498.2 427.1c10.3-4.9 20.6-9.6 31-14.1-2.1-5.1-4.4-10.1-6.7-15.2-1-2-0.8-4 0-5.6-3-0.8-6.1-1.5-9.1-2.3-0.5 1.4-1 2.7-1.5 4.1-4.6 11-9.2 22-13.7 33.1zM426.8 483.5c-1.7 0.8-3.5 1.7-5.2 2.5 0.9 6.3 1.8 12.6 2.5 18.9 1.5-5.1 3.1-10.1 4.5-15.2 0.8-2.8-0.1-4.9-1.8-6.2zM429.6 395.7c-1-2-2.1-4-3.2-6-1.1 2.9-2.3 5.8-3.4 8.8 2.2-0.9 4.4-1.9 6.6-2.8zM700.5 486.1c-3.5-8.4-7.3-16.8-11.2-25-0.5-1.2-0.7-2.3-0.6-3.4-4.5 15.1-9 30.2-13.6 45.3 8.5-5.6 16.9-11.3 25.4-16.9zM648.1 588.1c0.5 0.2 1.1 0.4 1.6 0.6-0.5-0.5-0.8-1.2-1.1-1.9-0.2 0.4-0.4 0.9-0.5 1.3zM657 538c0.3 2.1 0.6 4.2 0.9 6.2 0.5 1.6 1 3.1 1.6 4.7 1.4-4.9 2.9-9.8 4.3-14.7-2.3 1.3-4.5 2.5-6.8 3.8zM468 379.2c-0.7-0.1-1.3-0.3-2-0.4l-0.6 2.1c0.9-0.6 1.8-1.1 2.6-1.7zM729.2 466.9c0.8-0.5 1.6-1.1 2.4-1.6-0.6-0.3-1.1-0.5-1.7-0.8-0.2 0.8-0.5 1.6-0.7 2.4zM402.1 473.9c-0.7-3.5-1.4-6.9-2.1-10.4-1.5 4.5-3 9-4.4 13.6 2.1-1.2 4.3-2.2 6.5-3.2zM443.5 423.2l-5.1-10.2c-7 3.9-13.9 8.1-20.6 12.7-1.7 1.2-3.4 1.3-4.8 0.8-0.1 0.1-0.2 0.1-0.3 0.2-0.3 0.8-0.6 1.7-0.9 2.5 2.5 12.3 4.7 24.6 6.7 36.9 5.1-2.4 10.3-4.8 15.4-7.2 3.4-11.9 6.5-23.8 9.6-35.7zM732.2 451.5c0 0.2-0.1 0.4-0.1 0.6 6.4 2.8 12.7 5.7 19 8.5 0.1-0.7 0.2-1.4 0.4-2.2-5.7-2.3-13-4.8-19.3-6.9zM556.1 401.4c-3.6-1-7.3-2.1-11-3.1-1 3-2 6-3.1 9 4.8-2 9.5-3.9 14.1-5.9zM459.3 377.3c-0.5-0.1-1.1-0.2-1.6-0.3 0.2 0.9 0.5 1.8 0.7 2.7l0.9-2.4zM727.2 567c-10.9 5.5-22.1 10.4-32.7 16.2-2.1 6.5-4.2 13.1-6.3 19.6 9 3.5 18 7.1 27 10.7 4.4-13.8 8.6-27.7 12.7-41.6-0.2-1.6-0.5-3.2-0.7-4.9zM480.1 458.1l0.6 1.8c0.2-0.8 0.4-1.6 0.7-2.4-0.5 0.2-0.9 0.4-1.3 0.6zM673.5 597.3c4 1.5 8 2.9 12 4.4 1.9-5.5 3.7-11 5.5-16.6-6.2 3.7-12.1 7.6-17.5 12.2zM540.4 552.5c6.4 2.1 12.8 4.1 19.2 6.2-1.8-13.7-4-27.4-6.5-41-4.1 11.6-8.3 23.2-12.7 34.8zM709.8 509.7c-14.7 7.7-29.4 15.6-44 23.5-1.9 6-3.7 12.1-5.6 18.1 1.5 4.5 3 8.9 4.5 13.4 1.1 3.3-0.5 5.8-3 6.9 0.3 2.4 0.7 4.9 1 7.3 12.1-6.1 24.2-12.3 36.2-18.4 4.7-14.2 9.3-28.5 13.7-42.8-0.8-2.8-1.8-5.4-2.8-8zM391.6 500.6c6 2.4 12.1 4.7 18.2 7.1-1.2-4.7-2.3-9.5-3.4-14.2-5 2.3-9.9 4.7-14.8 7.1zM654.6 441.6c1.9-0.8 3.8-1.6 5.7-2.5l0.9-2.7c-8.2-3.1-16.4-6.1-24.6-9 1.4 6.5 2.8 12.9 4.1 19.4 4.6-2 9.2-3.8 13.9-5.2zM648.2 585c-0.9-13.4-2.5-26.7-4.5-39.9-6.1 3.3-12.2 6.6-18.3 10-2.9 7.4-5.9 14.7-9 22 10.5 3.5 21 7.2 31.5 10.8 0.2-0.6 0.4-1.2 0.5-1.8-0.1-0.2-0.2-0.6-0.2-1.1zM713.7 520.3c-3.8 12.9-7.7 25.7-11.6 38.5l20.7-10.5c-1.6-5.3-3.2-10.5-4.9-15.7l-4.2-12.3zM639.3 526.9c-0.4-1.3-0.9-2.7-1.3-4-0.8 2.2-1.7 4.4-2.5 6.5 1.3-0.8 2.5-1.6 3.8-2.5zM626.4 535.5c2.8-7.6 5.6-15.2 8.4-22.9-4.1-13.1-8-26.3-11.8-39.5-18 7.9-35.7 16.9-53.3 25.8 5.1 20.5 9.5 41.2 13.8 61.9 0.1 0.4 0.1 0.9 0.1 1.3 8.8-5.3 17.7-10.6 26.5-15.8 5.4-3.6 10.9-7.2 16.3-10.8zM644.4 464.4l2.7 13.8c2-5.7 3.9-11.3 5.9-17-2.9 1-5.8 2.1-8.6 3.2zM441.2 391.1c-0.4-1.7-0.9-3.4-1.4-5-1.1-3.9 2.1-7.2 5.5-7.8-0.4-1.3-0.7-2.7-1.1-4-3.6-0.7-7.1-1.4-10.7-2.1-0.3 0.8-0.7 1.7-1 2.5 2.9 5.5 5.8 10.9 8.7 16.4zM674.9 496.5c4.5-15.2 9-30.3 13.4-45.5-9.2 2-18.1 4.5-27 7.4-3.9 11.1-7.8 22.2-11.8 33.3 1.5 8.5 3 17 4.3 25.6 6.2-4.1 12.4-8.3 18.6-12.4 0.9-2.9 1.7-5.7 2.5-8.4zM717.3 459.1c0.3 0.8 0.6 1.6 0.9 2.3 0.7 0.7 1.3 1.6 1.6 2.9 0.5 2.3 1 4.5 1.6 6.8 0.1 0.3 0.2 0.6 0.3 0.8 1.9-1.3 3.8-2.5 5.7-3.8l1.2-4.2c-3.8-1.6-7.5-3.2-11.3-4.8zM445.3 453.6c3.3-1.8 6.7-3.5 10.1-5.3-1.9-4.1-3.8-8.3-5.7-12.4-1.6 5.9-3.2 11.9-4.8 17.9 0.1-0.1 0.2-0.1 0.4-0.2zM597.3 570.9c4.8 1.6 9.6 3.2 14.3 4.8 2-5.4 3.9-10.7 5.9-16.1-6.7 3.8-13.5 7.5-20.2 11.3zM596.2 771.8c-6.1-0.1-12.3-0.2-18.4-0.7 6.2 0.6 12.5 1.1 18.8 1.5-0.2-0.3-0.3-0.5-0.4-0.8zM487 455c-1.5 3.7-2.9 7.5-4.4 11.2 4.2 13.9 8.1 28 11.5 42.1 0.7-0.3 1.4-0.6 2.1-0.8 1.5-0.6 3.1-1.3 4.6-1.9 6.9-22.1 14-44.2 21.3-66.1-11.8 4.9-23.5 10.1-35.1 15.5zM551.3 508.3c-16.1 8.1-32.3 15.9-48.9 22.8 1.2 3.4 2.5 6.8 3.7 10.3 10.6 3.5 21.1 6.9 31.7 10.3 4.8-12.9 9.5-25.8 14.3-38.7-0.2-1.6-0.5-3.2-0.8-4.7zM546.7 486.3c-3.8-17.5-8-34.8-12.2-52.2-0.6 0.2-1.1 0.5-1.7 0.7l-22.2 66.6c12.1-5.1 24.1-10.1 36.1-15.1zM618.2 456.4c-2.9-10.5-5.8-21.1-8.5-31.6-0.7-2.7 0.3-4.8 1.9-6.1-6.5-2.2-13-4.3-19.6-6.4-14.7 5-29.2 10.4-43.6 16.1 6.1 16.6 11.3 33.4 15.9 50.5 0.2-0.1 0.3-0.1 0.5-0.2 3.3-8.8 6.5-17.6 9.8-26.4-2.7 8.6-5.4 17.2-8.2 25.8 1.8-0.7 3.5-1.5 5.3-2.2 15.6-6.5 31-13 46.5-19.5zM469.8 499.4c0.7-2.8 1.5-5.5 2.2-8.3-2-6.2-4.1-12.5-6.1-18.7-0.9-2.1-1.8-4.2-2.7-6.4-8.3 3.9-16.5 7.9-24.8 11.8l-9.6 36.9c9.4 3.4 18.8 6.8 28.3 10.1 0.7-1.2 1.8-2.2 3.4-2.9 6.4-2.6 12.7-5.2 19.1-7.8-2.4-7.3-4.8-14.5-7.2-21.8-0.8 2.4-1.7 4.8-2.6 7.1zM464.8 362.6c9.9-26.1 20.1-52.2 30.7-78 0.5-1.2 0.5-2.3 0.2-3.3 1.1-1.4 2.1-2.9 3.2-4.3 1.7-2.2 1.8-4.6 1-6.6 1.2-1.6 2.5-3.1 3.8-4.6 0.7 1.2 1.8 2.3 3.2 3.2-14.1 30.9-25.8 62.7-36.2 94.9 4 0.8 8 1.7 12 2.5 10.8-33.5 23.2-66.5 38.3-98.6 0.9-0.8 1.8-1.8 2.3-2.9 0.9-1.9 1.4-3.7 1.6-5.3 1.3-2.7 2.7-5.4 4-8 0.6 0.2 1.1 0.4 1.7 0.5-17.6 37.5-33.2 75.8-47.4 114.6 10.5 2.2 21 4.5 31.4 7 8.8-22 18.1-43.7 28.5-64.7 2.1-4.3 4.4-8.4 6.8-12.5-11.1 25.7-21.3 51.9-31.1 78.2 7.8 1.8 15.6 3.7 23.4 5.6 16.3-45.9 33.5-91.5 51.7-136.6 1.3-0.1 2.6-0.7 3.6-1.9l1.8-2.1c0.2 1.6 0.3 3.1 0.5 4.7 0.1 1.5 0.9 2.8 1.9 3.9-19 44-35.5 88.9-51.1 134.1 25.3 6.4 50.5 13.4 75.6 21 13.8 4.2 27.5 8.5 41.2 13.1 3-9.8 5.8-19.7 8.5-29.6 3.1-6.4 6.1-12.8 9.1-19.2 1.8 1.4 4.3 1.9 6.3 1.1-5.4 16.8-10.9 33.5-16.5 50.2 7 2.3 13.9 4.7 20.9 7.1 6.1-20.6 12.2-41.2 18.2-61.8 0.5-0.2 1-0.4 1.5-0.7-5.7 21.1-11.6 42.2-17.7 63.2 9.4 3.3 18.8 6.7 28.2 10.1 8.8 3.2 17.5 6.6 26.2 9.9 0.4 0.2 0.8 0.3 1.2 0.4 3.8 1.3 8.2 2.5 11.9 4.4 0.3-3.4 0.6-6.7 0.8-10.1 3-39.2 5.3-79.7 1-118.8-4-36.5-16.2-68.1-44.7-92.2-24.3-20.5-54.7-30.4-86.2-31.8-21.2-1-41.9 0.9-62 6.1-1.2-0.2-2.6-0.1-4.1 0.5-0.9 0.4-1.8 0.9-2.7 1.4-6.6 1.9-13.1 4.2-19.6 6.8-32.3 13.3-56.9 34.4-77.4 62.5-17.9 24.6-32.6 51.7-45.5 79.5l11.4 2.1c9.8 1.3 19.2 3.1 28.6 5zM755.9 410c-0.3-1.5-1-2.7-2.1-3.6l3-15.9c-0.2 6.6-0.5 13-0.9 19.5z m-1-87.6c0.7 6.2 1.1 12.4 1.5 18.6-0.2-0.2-0.3-0.4-0.5-0.5-1.2-11.2-2.3-22.4-3.5-33.6 1.1 5 2 10.2 2.5 15.5zM727.8 298l0.6 8.4c-0.8 0.7-1.5 1.6-2 2.8-0.3 0.8-0.7 1.7-1 2.5 0.8-4.6 1.6-9.2 2.4-13.7z m-3 79.8c-0.3 4-0.5 8-0.8 12.1-0.2 2.8 1.6 4.7 3.9 5.6-0.3 1.5-0.5 2.9-0.8 4.4-0.3 1.9 0.3 3.8 1.4 5.3-2.5 7.5-4.9 15-7.4 22.5 1.9-8.7 3.8-17.3 5.5-26 0.9-4.6-2.6-7.6-6.1-7.6 1.5-5.6 2.9-10.9 4.3-16.3zM721.4 246c-0.4 0.1-0.7 0.3-1.1 0.5-0.7-1.5-1.9-2.5-3.2-3.1l-2.4-3.6c2.4 1.9 4.6 4 6.7 6.2z m-27.7 1c-0.2-0.6-0.4-1.2-0.7-1.9 0.3-0.1 0.6-0.1 0.8-0.2v2l-0.1 0.1z m4.8 96.9c0.2 0.1 0.5 0.1 0.7 0.2-0.5 1.4-0.9 2.8-1.4 4.3 0.3-1.6 0.5-3 0.7-4.5z m-0.8-116.4c-0.3 0.1-0.7 0.2-1 0.4-2.3-1.6-4.6-3.1-7-4.6 2.8 1.4 5.4 2.7 8 4.2z m-26.8 80.9c-0.6 2.1-1.1 4.2-1.7 6.4-2.7-0.4-5.5 0.8-6.6 4.3-0.8 2.4-1.5 4.8-2.3 7.2 1.3-6.2 2.5-12.4 3.5-18.6 2.1 1.8 5 2.4 7.1 0.7z m-12.1-79.6c1.1 1 2.3 1.9 3.7 2.7 1.9 3 3.8 6 5.7 8.9-0.2 0.4-0.4 0.8-0.6 1.3-0.5 1.3-1 2.7-1.4 4 0.1-1.2 0.3-2.3 0.4-3.5 0.5-4.2-4.3-6.8-8-6 0.2-1.7 0.3-3.4 0.5-5.1 0-0.9-0.1-1.6-0.3-2.3z m-3.1-3.4c0.1 0.1 0.1 0.2 0.2 0.3-0.1 0-0.2-0.1-0.2-0.1v-0.2z m-23.6 32.4v-0.4c0.4 0.4 0.9 0.7 1.4 1-0.7 1.5-1.3 2.9-2 4.4 0.2-1.6 0.4-3.3 0.6-5z m-2.5-7.2c0.1 0.7 0.1 1.5 0.1 2.2-0.2-0.2-0.5-0.3-0.8-0.4 0.3-0.6 0.5-1.2 0.7-1.8z m-76.9-8.1c7.6-1.7 14.2-4.7 16.3-11.6 4.9-1.4 9.7-2.8 14.6-4.2-0.6 1.1-1.2 2.3-1.8 3.4-17.6 25-37.6 48.3-50.8 76-4.6 9.6-8.9 19.3-13.1 29.1 2.4-7.5 4.8-15.1 7.2-22.6 9-23.4 18.2-46.8 27.6-70.1z" fill="#901D22" p-id="9344"></path><path d="M771.5 224.5C718 141.4 610.2 133.7 526 171.7c-51.8 23.4-78.7 71.3-102 120.5-24.9 52.5-44.7 107.3-59.5 163.5-7.5-8.3-15-16.5-23.9-23.3-13.8-10.6-30.3-18.7-47-23.5-35.4-10.3-76.4-4.8-101.3 24.4-21 24.7-24.1 58.3-6 85.5 18.5 27.7 49.4 43.8 74.3 64.9 33.3 28.2 54 63 55.9 107.2 0.1 1.9 0.9 3.4 2 4.4 0.6 0.7 1.5 1.2 2.5 1.6 2.4 0.9 4.9 1.7 7.3 2.6 3.8-1.1 7.6-1.9 11.6-2.3 1.3-1.9 3.6-3 6.5-2.4 5.8 1.2 11.6 2.6 17.3 4 49 12.3 95.7 32.3 144.2 46.2 6.5 0.6 13.1 1.2 19.6 1.8 9.8 0.9 19.6 1.8 29.4 2.8 12.5 1.2 25 2.3 37.5 3.5 3.3 0.3 6.8 0.6 10.3 0.9 3.2 0.3 6.5 0.6 9.8 1.1-0.1-0.3-0.2-0.6-0.4-0.8 0.5 0.1 1 0.2 1.6 0.2v0.8c7.8 1 15.6 2.5 22.8 5 0.7 0.2 1.3 0.5 2 0.7 1.7-0.3 3.6 0.2 5.3 1.5 0.7 0.6 1.4 1.2 2 1.8 2.5 1.4 4.8 2.9 7 4.7 2.5-0.8 4.9-1.8 7.2-2.9 2.1 0.2 4.2-0.6 5.6-2.9l0.3-0.6c5.5-3.8 10.5-8.9 15-15.7 14.4-21.8 26.3-45.8 37.7-69.3 23.6-48.6 42.9-99.3 57.3-151.4 26.3-94.7 50.5-213.2-6.4-301.7zM218.2 509.1c-2.1-8.2-3-16.7-1.4-25 0.4-2.1 0.9-4 1.6-5.8v1.3c0.3 10 0.3 19.8-0.2 29.5z m18.9 25.7c-0.3-0.2-0.7-0.4-1-0.7-1.2-0.7-2.4-1-3.5-0.9 0.1-0.4 0.2-0.7 0.2-1.1 2.5-10.6 5.9-20.9 10.1-30.9-2 11.3-3.9 22.5-5.8 33.6z m9.3-67.4c0-0.1 0-0.2 0.1-0.3 0.2-0.7 0.2-1.4 0.1-2 0.3 0.1 0.6 0.3 0.9 0.4-0.3 0.6-0.7 1.3-1.1 1.9z m11.5 19.4c0.9-5.5 1.9-10.9 2.8-16.4 1.2 0.5 2.3 1 3.5 1.6-2.1 4.9-4.2 9.8-6.3 14.8z m22.5 56.9c-1.3-1.1-2.6-2.1-4.1-3.1 1-2.5 2-5.1 3-7.6 0.7 1 1.5 1.9 2.3 2.9l-1.2 7.8z m2.6-52.8c0.4-2 0.8-4.1 1.2-6.1 0.3 0.3 0.6 0.5 0.9 0.8-0.8 1.8-1.5 3.5-2.1 5.3z m10.4-25.9c-2.1-1.1-4.3-2.2-6.5-3.2-3-1.4-6.2-2.6-9.4-3.6-0.6-0.2-1.1-0.2-1.6-0.3-0.7-0.3-1.5-0.7-2.2-1-0.5-0.2-1-0.4-1.5-0.5 7.3 1.9 14.4 4.9 21.2 8.6 0-0.1 0 0 0 0z m20.8 14.8l-0.3-0.3c-3.1-2.8-6.2-5.3-9.5-7.7 0-0.2 0.1-0.3 0.1-0.5 4.1 2.6 8 5.3 11.9 8.1-0.7 0.1-1.5 0.2-2.2 0.4z m8 4.5c0-0.2-0.1-0.5-0.1-0.7 0.6 0.4 1.1 0.8 1.7 1.2-0.5-0.1-1.1-0.3-1.6-0.5z m18.4 206.3c-3.3-1.2-6.7-2.3-10-3.5 1.2-2.8 2.4-5.7 3.5-8.5l0.4 0.4v0.2c-1.1 5.1 3.3 8.2 7.2 7.5-0.4 1.3-0.7 2.6-1.1 3.9zM378.1 536c-1.1-2.7-2.3-5.3-3.6-7.9 2.4 0.5 4.9-0.3 6.3-2.3-0.8 3.5-1.7 6.8-2.7 10.2z m38 135c-1 0.7-2.1 1.5-3.1 2.2-0.2-1.1-0.4-2.3-0.7-3.4 1.5-1.6 2.9-3.3 4.3-5.1-0.2 0.9-0.4 1.9-0.6 2.8-0.4 1.3-0.3 2.4 0.1 3.5z m21.9 42.1c-1.2-0.7-2.3-1.4-3-2.3-0.3-0.4-0.6-0.8-0.8-1.3 1.8-0.2 3.7 0.2 5.7 1.8-0.7 0.6-1.3 1.2-1.9 1.8z m-1.8-15.9c0.8-1.2 1.5-4 2.3-6.9 0.4 2.6 0.9 5.2 1.6 7.6-1.3-0.4-2.6-0.6-3.9-0.7z m-9.7-76.2c-3.7 8-7.5 15.9-11.7 23.7-0.6 1-1.1 2.1-1.7 3.1 0-0.6 0-1.2 0.1-1.8 5.2-20 10.5-40 15.9-59.9 0.8-2.7 1.5-5.4 2.2-8.1 4.7-10.9 9.3-21.9 13.9-32.9-6.5 25.2-12.7 50.5-18.7 75.9z m48.1 109.1c-2.5-0.8-5.1-1.6-7.6-2.4h0.1c1.6-0.1 5.4 0 7.7-0.5-0.2 0.8-0.2 1.5-0.2 1.8v1.1z m8.2-30.9c-0.9 0.6-1.7 1.2-2.5 1.8-0.2-0.7-0.4-1.3-0.5-1.8 1.5-2.7 3-5.4 4.6-8-0.5 2.6-1 5.3-1.6 8z m15.9-18.3c-0.1 0.1-0.2 0.3-0.3 0.4 0.2-1.6 0.3-3.2 0.5-4.8 1.6-2.5 3.1-5.3 4.4-8.2-1.6 4.2-3.1 8.4-4.6 12.6z m29.3 39.9c-2 0.6-3.9 1.4-5.9 2.1-1.5-0.3-3-0.6-4.5-1 0.5-0.5 1-1.1 1.4-1.8 2.2 1.3 5 1.3 7.1-1.1 1-1.1 1.8-2.2 2.7-3.3 0.5-0.3 0.9-0.8 1.2-1.3-0.7 2.1-1.4 4.3-2 6.4z m28.6 24.9c-0.6-0.3-1.1-0.5-1.7-0.8 0.6-0.2 1.2-0.5 1.8-1 0 0.6 0 1.2-0.1 1.8z m59.5-89.5c0.6-3.4 1.2-6.8 1.8-10.1 0.2-1.3 0.1-2.5-0.3-3.6 2-4.8 4.1-9.7 6.1-14.6-0.3 3.3-0.2 6.6 0.2 9.8-2.6 6.1-5.2 12.3-7.8 18.5z m10.6 67c-0.3 0.2-0.5 0.4-0.8 0.6-0.4 0-0.9-0.1-1.3-0.1 0.4-2.3 0.8-4.7 1.1-7.1 2.4-6 4.8-11.9 7.4-17.8-2.3 8.1-4.4 16.2-6.4 24.4z m16.7-7.7c-0.6-0.4-1.2-0.7-1.8-0.8 0.9-3.5 1.9-7.1 2.8-10.6-0.2 1.7-0.5 3.4-0.7 5.1-0.2 1.7 0.2 3.2 0.9 4.5-0.3 0.5-0.8 1.1-1.2 1.8z m4.2 16.5c0.1-0.4 0.1-0.8 0.1-1.1 4.4-5.6 8.2-11.6 11.7-17.8-1.5 4.6-2.9 9.2-4.3 13.9-1.3 0.1-2.6 0.6-3.8 1.8-1.2 1-2.5 2.1-3.7 3.2z m130.2-256.7c-0.3 1.5-0.7 3.1-1 4.6-1.3 5.8-2.7 11.5-4.1 17.1-2.8 11.3-5.8 22.5-9 33.6-1.2 4.2-2.4 8.3-3.7 12.5-4.4 14.6-9.2 29.1-14.4 43.5-2.9 8-6 16-9.1 23.9-1.4 3.4-2.7 6.9-4.1 10.3-0.7 1.8-1.5 3.6-2.2 5.3-1.6 3.8-3.2 7.6-4.8 11.3l-11.1-3.6c-14.7 41.6-33.3 81.7-55.8 120-2.7 1.8-5.7 3.2-8.9 4.3 4.2-4.9 7.4-10.4 9.9-16.6 2.2-0.3 4.2-1.6 5.2-4.2 0.3-0.7 0.5-1.4 0.8-2.1 1.8-0.1 3.5-1 4.5-3.1 15-32.6 27.7-66.1 39-100-9.2-3-18.5-6-27.7-9-5.4 16-11 31.9-17 47.7-1.3 2.6-2.7 5.1-4.1 7.7 0.5-3.7 1-7.3 1.5-11 2.6-7.4 5.2-14.8 7.9-22.2 2.9-7.8 5.8-15.5 8.5-23.3-23.7-7.8-47.3-15.9-70.8-24-5.7 13.1-11.5 26-17.5 38.9 4.5-13.4 9.2-26.8 13.9-40.1-23.8-8.2-47.5-16.6-71.1-25.1-5.9 14.7-12.1 29.3-18.6 43.7 5.5-14.8 11-29.7 16.5-44.5-13-4.7-26.1-9.5-39.1-14.2-1.9 5.3-3.7 10.6-5.6 15.9-6.7 18.7-13.7 37.3-21 55.8 2.7-9.8 5.3-19.6 8.1-29.4 4.1-14.8 8.4-29.6 12.7-44.3-20.5-7.6-41-15.3-61.4-23.1-7.6 28.5-15.5 56.9-24.3 84.9-3.6 7.8-7.1 15.6-10.4 23.4-1.9 1.6-3.8 3.3-5.7 4.9 6.8-19.8 13.8-39.5 17.5-60.2 0.5-2.5-0.5-4.7-2.1-6.1 6.1-16.5 11.9-33.1 17.3-49.8-11-4.2-21.9-8.5-32.9-12.8-0.3 1-0.5 1.9-0.8 2.9 0.2-1 0.4-2 0.6-2.9l-13.2-5.1c-1.2-0.5-2.1-1.2-2.8-2.1-0.5-0.7-0.9-1.4-1.1-2.2-0.6-1-1-2.1-1-3.2-0.8-0.3-1.6-0.7-2.5-1-2.2-0.9-3.2-2.6-3.2-4.3-0.3 0-0.6 0.1-0.9 0.2-10.8-9.7-22-18.9-34.1-27.3-21.8-15.3-46.5-31-74.3-28.3-22 2.1-41.3 16.2-45.8 38.5-3.4 16.9 1.1 34.1 8.2 50-16-14.9-28.9-33.2-26.7-56.1 3.9-40.5 46.4-61.8 83.2-58 21 2.1 41.4 10.4 58.9 22.2 13.5 9.1 23.7 22 34.7 33.8 3.1 3.4 9.2 1.7 10.3-2.7 3.5-14 7.4-27.9 11.5-41.7 1.1-3.5 2.1-7.1 3.2-10.6 1-3.1 2-6.3 3-9.4 1.3-4.1 2.6-8.2 4-12.3 8.1-23.9 17.1-47.4 27.2-70.5 18.3-42 38.2-89.2 73.3-120.1 34.1-30 85.8-43.1 130.4-43.5 46.5-0.4 91.2 15.9 121.9 51.8 61.5 71 49.8 174.6 30.2 261.3z" fill="#901D22" p-id="9345"></path><path d="M645.8 762.5c-1.7-1.4-3.6-1.8-5.3-1.5-0.7-0.3-1.3-0.5-2-0.7-7.2-2.5-15-4-22.8-5-0.4 0-0.8-0.1-1.1-0.1-3.3-0.4-6.6-0.8-9.8-1.1-3.5-0.3-7-0.6-10.3-0.9-12.5-1.2-25-2.3-37.5-3.5-9.8-0.9-19.6-1.8-29.4-2.8-6.5-0.6-13.1-1.2-19.6-1.8-48.5-13.9-95.2-33.9-144.2-46.2-5.7-1.4-11.5-2.8-17.3-4-2.9-0.6-5.2 0.5-6.5 2.4-4 0.4-7.9 1.1-11.6 2.3-4 1.2-7.8 2.8-11.4 4.8-2-0.7-4.3-0.6-6.3 1-5 4.1-8.8 9-11.4 14.5-5.3 7.2-8.9 15.9-10.1 25.7-4.5 35.5 25.2 60 53.7 74.5 27.6 14.1 56.9 25 87 32.7 22 10.7 45.8 17.4 70.1 18.9 8.7 1.1 17.3 1.8 25.9 1.8 5.3 0.4 10.6 0.7 15.9 0.8 31.7 0.5 67.9-4.5 95.5-21.3 14.8-9 26.4-22.7 28.9-40.2 0.6-4.4 0.7-8.8 0-13.2 0.4-2.2 0.5-4.5 0.3-7-0.1-0.5-0.2-1-0.2-1.5 0.9-1.4 1.4-3.2 0.7-4.9-2.7-7.3-6.9-12.8-12.1-17.1-2.2-1.8-4.5-3.3-7-4.7-0.7-0.7-1.4-1.3-2.1-1.9z m-71.4 8.4c1.1 0.1 2.2 0.2 3.4 0.3 6.2 0.5 12.3 0.6 18.4 0.7 0.1 0.3 0.2 0.6 0.3 0.8 0.5 1 1.2 1.9 2.2 2.5 0.2 0.2 0.5 0.3 0.8 0.4-11.3-1.3-22.4-3.2-33.4-5.7 2.7 0.4 5.5 0.7 8.3 1z m-120-24.1c0.3 2.9 2.2 5.7 5.9 6.1 4.9 0.5 9.8 0.9 14.6 1.4 7.3 2.6 14.6 5.3 22 7.9 8.5 3 17.1 5.9 25.7 8.7-17.4-3.9-34.6-8.9-51.5-14.2-32.9-10.4-70.9-20-100.1-40.5 27.8 10.1 55.6 20.5 83.4 30.6zM307.1 745c-0.8-5.6-0.4-11.1 1.5-16.4 7.6-11.3 20.5-19.2 35.4-19.6 0.9 1 1.8 1.9 2.7 2.8-5.4 1.3-10.2 4-14.4 7.8-11.1 6.6-21 15.2-25.2 25.4z m40.5 39c-7.4-7-13.3-15.3-15.7-25.5 0-0.2-0.1-0.4-0.1-0.6 3.7 9.5 10.1 18.4 15.8 26.1z m-26.3-17.2c-4.7-7-4.9-13.2-2.6-18.5-0.2 2.9-0.1 5.9 0.4 8.8 0.6 3.6 1.5 7.1 2.7 10.4-0.2-0.3-0.4-0.5-0.5-0.7z m2.9 27.4c10.3 8 22.2 14.4 34.1 20 0.1 0.1 0.2 0.1 0.2 0.2-12.2-5.4-24.3-11.9-34.3-20.2z m105.2 36.3c-7.7-4.4-15.1-9.2-22.2-14.5-4.4-3.3-8.7-6.7-12.9-10.3 26.4 13.6 53.9 25.1 82.3 34 9.6 3 19.3 5.9 29.2 8.5-26-2.9-51.6-9.3-76.4-17.7z m141.1 14.2c-32.1 0.8-64.7-8.5-94.8-18.2-37.6-12.2-73.5-28.9-107.3-49.3-0.9-0.5-1.8-0.8-2.7-0.9-9.8-11.7-24.2-30.1-21.8-44.5 2.1-3.7 5.8-6.2 11.7-6.3 1.3 0 2.4-0.4 3.3-1 1.2 0.3 2.5 0.7 3.8 1.3 0.1 0 0.2 0.1 0.3 0.1 30.5 21.7 70.2 31.8 104.8 42.8 51.4 16.3 104.5 28.1 158.5 21h0.2c0.5-0.1 1.1-0.1 1.6-0.2 0.4-0.1 0.9-0.2 1.2-0.3 1.2 0.4 2.4 0.7 3.7 1-1.6 6.7-4.1 13-7.3 19-17.4 15.5-42.8 29.6-51.4 33.8-1.2 0.5-2.5 1.1-3.8 1.7z m34.6 8.5c-2.2 0.7-4.4 1.3-6.6 1.9-0.1-0.1-0.1-0.3-0.2-0.4 0.7-0.4 1.4-0.9 2.1-1.3 0.9-0.3 1.6-0.8 2.2-1.4 4.4-3 8.6-6.3 12.5-9.8 8-4.1 15.8-8.5 23.5-12.9 4.1-2.4 8.5-5.1 12.5-8.3-8 17.8-28.2 26.8-46 32.2z m43.8-46.9c-0.2 0.2-0.3 0.4-0.5 0.5-3.5 3.8-7.8 6.8-12.3 9.5 4.2-3.7 8.1-7.6 11.2-11.9 0.5 0.8 1 1.4 1.6 1.9z" fill="#384D9E" p-id="9346"></path></svg>