<?xml version="1.0" standalone="no"?><!DOCTYPE svg PUBLIC "-//W3C//DTD SVG 1.1//EN" "http://www.w3.org/Graphics/SVG/1.1/DTD/svg11.dtd"><svg t="1582522721132" class="icon" viewBox="0 0 1024 1024" version="1.1" xmlns="http://www.w3.org/2000/svg" p-id="5524" xmlns:xlink="http://www.w3.org/1999/xlink" width="200" height="200"><defs><style type="text/css"></style></defs><path d="M528.560676 556.60694c0 7.03523-5.702885 12.739139-12.741186 12.739139h-7.643074c-7.03523 0-12.738116-5.704932-12.738115-12.739139V79.791278c0-7.03523 5.702885-7.642051 12.738115-7.642051h7.643074c7.0383 0 12.741185 0.607844 12.741186 7.642051v476.815662z" fill="#EC1C23" p-id="5525"></path><path d="M632.626823 93.698009c0 6.765077-5.701862 12.244882-12.740162 12.244882H508.176416c-7.03523 0-12.738116-5.479805-12.738115-12.244882v-8.636705c0-6.762007 5.702885-12.244882 12.738115-12.244882h111.711268c7.0383 0 12.740162 5.482875 12.740162 12.244882v8.636705z" fill="#EC1C23" p-id="5526"></path><path d="M670.07062 926.367379c0 14.074553-11.407817 25.483394-25.477254 25.483394H381.953643c-14.07046 0-25.480324-11.408841-25.480324-25.483394l-63.696718-592.552617c0-14.07046 11.406794-25.477254 25.477255-25.477255h387.491265c14.07046 0 25.477254 11.406794 25.477254 25.477255l-61.151755 592.552617z" fill="#0D4CD6" p-id="5527"></path><path d="M708.018907 576.788585H315.94937l-10.335392-101.320616h412.767951z" fill="#FFC23B" p-id="5528"></path><path d="M416.782893 606.115518a95.217618 91.390453 0 1 0 190.435237 0 95.217618 91.390453 0 1 0-190.435237 0Z" fill="#F7CE66" p-id="5529"></path><path d="M449.669908 619.935268c-9.851369-28.761044 8.712429-61.157895 41.461297-72.374354 32.748868-11.215436 67.279313 2.997264 77.128635 31.750121M581.737806 618.649995a6.120394 6.120394 0 0 1-3.806699 7.769964l-107.023502 36.656875a6.118348 6.118348 0 0 1-7.768941-3.802606l-2.37714-6.943132a6.115278 6.115278 0 0 1 3.803629-7.765871l107.026572-36.660968a6.116301 6.116301 0 0 1 7.765871 3.807722l2.38021 6.938016z" fill="#F9B02A" p-id="5530"></path><path d="M714.752262 280.052301c0 7.0383-5.702885 12.741185-12.741186 12.741185H321.9879c-7.0383 0-12.741185-5.702885-12.741185-12.741185v-48.462759c0-7.03523 5.702885-12.741185 12.741185-12.741185h380.022153c7.0383 0 12.741185 5.706979 12.741186 12.741185v48.462759z" fill="#D9D9D9" p-id="5531"></path><path d="M761.344416 340.100932c0 7.034207-5.704932 12.735046-12.742208 12.735045H275.392676c-7.034207 0-12.738116-5.700839-12.738116-12.735045v-63.946405c0-7.03523 5.704932-12.738116 12.738116-12.738115h473.209532c7.0383 0 12.742209 5.703909 12.742208 12.738115v63.946405z" fill="#C5C5C5" p-id="5532"></path></svg>