<?xml version="1.0" standalone="no"?><!DOCTYPE svg PUBLIC "-//W3C//DTD SVG 1.1//EN" "http://www.w3.org/Graphics/SVG/1.1/DTD/svg11.dtd"><svg t="1582522628464" class="icon" viewBox="0 0 1024 1024" version="1.1" xmlns="http://www.w3.org/2000/svg" p-id="1712" xmlns:xlink="http://www.w3.org/1999/xlink" width="200" height="200"><defs><style type="text/css"></style></defs><path d="M350.47 938.84c-28.28 0-56.06-4.67-82.86-13.96-32.92-11.41-62.72-29.16-88.57-52.77-25.85-23.61-46.23-51.68-60.57-83.43C103.56 755.67 96 720.39 96 683.83c0-63.78 23.69-124.84 66.7-171.94 43.01-47.1 101.68-76.21 165.2-81.99l20.21-1.84c17.6-1.6 33.17 11.37 34.77 28.97S371.5 490.2 353.9 491.8l-20.21 1.84c-99.02 9-173.69 90.77-173.69 190.19 0 54.31 22.09 104.4 62.19 141.02 35.66 32.57 80.64 49.98 128.2 49.99 5.92 0 11.88-0.27 17.88-0.82L573.1 855.4c17.62-1.61 33.17 11.37 34.77 28.97 1.6 17.6-11.37 33.17-28.97 34.77l-204.84 18.62c-7.9 0.72-15.76 1.08-23.59 1.08z" fill="#00C1A5" p-id="1713"></path><path d="M575.96 919.27c-16.37 0-30.32-12.49-31.83-29.11-1.6-17.6 11.37-33.17 28.97-34.77l46.82-4.25C722.58 841.81 800 757.04 800 653.96V438c0-17.67 14.33-32 32-32s32 14.33 32 32v215.96c0 65.54-24.34 128.28-68.53 176.68-44.19 48.39-104.48 78.31-169.75 84.25l-46.82 4.26c-0.99 0.08-1.97 0.12-2.94 0.12z" fill="#FFD5CA" p-id="1714"></path><path d="M351 491.94c-17.67 0-32-14.33-32-32V227.99c0-72.79 59.21-132 132-132h281c72.79 0 132 59.21 132 132V438c0 17.67-14.33 32-32 32s-32-14.33-32-32V227.99c0-37.5-30.5-68-68-68H451c-37.5 0-68 30.5-68 68v231.95c0 17.67-14.33 32-32 32z" fill="#00C1A5" p-id="1715"></path><path d="M832 285.99H351c-17.67 0-32-14.33-32-32s14.33-32 32-32h481c17.67 0 32 14.33 32 32s-14.33 32-32 32z" fill="#00C1A5" p-id="1716"></path><path d="M527.5 464.99c-16.57 0-30-13.43-30-30v-19c0-16.57 13.43-30 30-30s30 13.43 30 30v19c0 16.57-13.43 30-30 30zM655.5 464.99c-16.57 0-30-13.43-30-30v-19c0-16.57 13.43-30 30-30s30 13.43 30 30v19c0 16.57-13.43 30-30 30zM591.5 588.99c-44.1 0-85.24-23.75-107.36-61.97-8.3-14.34-3.4-32.69 10.94-40.99 14.34-8.3 32.69-3.4 40.99 10.94C547.5 516.72 568.74 529 591.5 529s44-12.27 55.43-32.03c8.3-14.34 26.65-19.24 40.99-10.94s19.24 26.65 10.94 40.99c-22.12 38.23-63.26 61.97-107.36 61.97z" fill="#FFF1B6" p-id="1717"></path><path d="M281 927.65c-4.58 0-9.24-0.99-13.66-3.08-15.98-7.55-22.81-26.63-15.25-42.61 64.93-137.33 40.17-246.02-75.7-332.28-14.18-10.55-17.11-30.6-6.56-44.78s30.6-17.11 44.78-6.56c70.35 52.37 114.1 114.05 130.05 183.3 15.85 68.84 4.17 145.44-34.71 227.67-5.46 11.57-16.96 18.34-28.95 18.34z" fill="#00C1A5" p-id="1718"></path><path d="M515.48 283.16c-17.67 0-32-14.33-32-32v-115.8c0-17.67 14.33-32 32-32s32 14.33 32 32v115.8c0 17.67-14.33 32-32 32zM667.52 283.16c-17.67 0-32-14.33-32-32v-115.8c0-17.67 14.33-32 32-32s32 14.33 32 32v115.8c0 17.67-14.33 32-32 32z" fill="#00C1A5" p-id="1719"></path></svg>