<?xml version="1.0" standalone="no"?><!DOCTYPE svg PUBLIC "-//W3C//DTD SVG 1.1//EN" "http://www.w3.org/Graphics/SVG/1.1/DTD/svg11.dtd"><svg t="1582522761079" class="icon" viewBox="0 0 1024 1024" version="1.1" xmlns="http://www.w3.org/2000/svg" p-id="5908" xmlns:xlink="http://www.w3.org/1999/xlink" width="200" height="200"><defs><style type="text/css"></style></defs><path d="M718.3 293.7v488.1c0 31-18.6 57.7-45.2 69.5l11-12.9c0-1.8-53.7 0-55.7 0H376.1c-2 0-3.7 1.5-3.7 3.3l-33.9-4.1c0 0.7 7.1 7.5 16 15.8-29.3-10.6-50.2-38.6-50.2-71.6V293.7c0-28.5 15.7-53.3 38.9-66.4v0.1c0 10.2 8.3 18.5 18.5 18.5H661c10.2 0 18.5-8.3 18.5-18.5v-0.1c23.1 13.1 38.8 37.9 38.8 66.4z" fill="#CA0112" p-id="5909"></path><path d="M684.1 838.4l-11 12.9c-9.4 4.2-19.9 6.6-30.9 6.6H380.4c-9.1 0-17.8-1.6-25.9-4.5-9-8.3-16-15.1-16-15.8l33.9 4.1c0-1.8 1.6-3.3 3.7-3.3h252.3c2 0 55.7-1.8 55.7 0zM679.5 227.4v0.1c0 10.2-8.3 18.5-18.5 18.5H361.7c-10.2 0-18.5-8.3-18.5-18.5v-0.1c11-6.2 23.7-9.7 37.2-9.7h261.8c13.6-0.1 26.2 3.5 37.3 9.7z" fill="#CA0112" p-id="5910"></path><path d="M679.5 207.8v19.6c-11-6.2-23.7-9.7-37.2-9.7H380.4c-13.5 0-26.2 3.5-37.2 9.7v-19.6c0-5.8 2.6-10.9 6.8-14.3h322.7c4.1 3.4 6.8 8.5 6.8 14.3z" fill="#CA0112" p-id="5911"></path><path d="M677.8 180.2v13.3h-5.1c-3.2-2.6-7.3-4.2-11.7-4.2H361.7c-4.4 0-8.5 1.6-11.7 4.2h-5.1v-13.3h332.9zM673.1 851.3l-26 30.4c0 1.8-1.7 3.3-3.7 3.3H391.2c-1.3 0-21.6-17.9-36.6-31.7 8.1 2.9 16.8 4.5 25.9 4.5h261.8c11 0.1 21.4-2.3 30.8-6.5z" fill="#D3D6DB" p-id="5912"></path><path d="M672.7 193.5H350c3.2-2.6 7.3-4.2 11.7-4.2H661c4.4 0 8.5 1.6 11.7 4.2z" fill="#D3D6DB" p-id="5913"></path><path d="M546.3 801c41-136.4 93.7-487.7 116.5-480.8 22.7 6.8-22.4 50.4-45.2 191.1-28.1 173.8 11.7 268.4-19.7 236.3-16.7-17-92.7 189.8-51.6 53.4z" fill="#FFFFFF" p-id="5914"></path><path d="M601.6 373.4c0 86.2 39.2 132 42 132s-32-45.8-32-132-2.2-156-5-156-5 69.9-5 156z" fill="#FFFFFF" p-id="5915"></path><path d="M482.7 598.9c0.6 34.8 20.4 60 41.5 60.5s31.4-27.4 30.8-62.2c-0.6-34.8-12-63.3-33-63.9-21.1-0.6-39.9 30.8-39.3 65.6z m64.2-5.5c0.4 20.6-8.5 37.1-19.9 36.8-11.3-0.3-8.8-16.9-9.1-37.6-0.4-20.6-3.5-37.4 7.8-37.1 11.4 0.3 20.9 17.2 21.2 37.9zM540.3 414.2l-3.1-47.7 28.4 34.5c1.6 1 3.3-0.3 3.3-2.6l2.2-53.1c0.1-2.5-1.7-4.7-3.4-4.1l-111.4 34.3L564.8 468c1.2 0.8 2.5 0.4 3.1-1.1 0.7-1.6 0.3-3.8-0.9-4.9l-26.7-47.8z m-54.1-32.4l29.3-18.4 0.3 41.2-29.6-22.8z" fill="#E8E5E1" p-id="5916"></path><path d="M526.1 698.5c-40.1-4.8-61.8 38-63-26.1-0.4-21.2-7.7-118.2-1.8-134.5-24.7 19.3-40.9 61.1-40 111.6 1.3 73.1 38.2 136.6 82.3 141.9 40.2 4.8 71.4-101.5 75.9-164.9-12.9 22-31.9 74.5-53.4 72zM559.1 476L464 465.4l-14.2 21.9 102.5 41.3 12.8-8.6 21.7-18.9 14.3-109.6c1.6-12.3-4.4-25.3-13.4-28.9l5-11.8c-9-3.6-17.7 3.4-19.3 15.7L559.1 476z" fill="#E8E5E1" p-id="5917"></path><path d="M422.4 368.7c0 49.6-18.8 71.1-41.9 71.1-23.2 0-41.9-21.5-41.9-71.1s18.8-69.2 41.9-69.2c23.1 0 41.9 19.6 41.9 69.2z" fill="#E8E5E1" p-id="5918"></path><path d="M348.1 328.3a32.4 20 0 1 0 64.8 0 32.4 20 0 1 0-64.8 0Z" fill="#00A99D" p-id="5919"></path><path d="M348.1 399.8a32.4 20 0 1 0 64.8 0 32.4 20 0 1 0-64.8 0Z" fill="#00A99D" p-id="5920"></path></svg>