<?xml version="1.0" standalone="no"?><!DOCTYPE svg PUBLIC "-//W3C//DTD SVG 1.1//EN" "http://www.w3.org/Graphics/SVG/1.1/DTD/svg11.dtd"><svg t="1582522716167" class="icon" viewBox="0 0 1024 1024" version="1.1" xmlns="http://www.w3.org/2000/svg" p-id="5396" xmlns:xlink="http://www.w3.org/1999/xlink" width="200" height="200"><defs><style type="text/css"></style></defs><path d="M303.81404098 255.89647736h435.92651227v540.4819314H303.81404098z" fill="#56C3E8" p-id="5397"></path><path d="M729.08241891 777.88081977H293.24398992l42.10403549 81.82980986 355.7702943-1.32125584 37.96409921-80.50855402zM340.10454831 167.72463671h340.26755302l50.47199276 69.67425166H293.24398992l46.86055838-69.67425166z m-1e-8 0" fill="#EFF3F4" p-id="5398"></path><path d="M718.68853515 433.73758177c-56.72593951 52.3217512-141.37442979 60.16120585-206.73257715 19.20225964-120.14624439-68.52916312-213.95544517-9.68921311-213.95544517-9.68921384v139.52467135s137.05832551-43.24912474 234.47896064 25.28003764 191.14175188-25.28003838 191.14175189-25.28003765l-4.93269021-149.03771713z m0 0" fill="#EA5D5C" p-id="5399"></path><path d="M733.13427117 211.67843137l-39.54960636-49.5030715c-5.46119283-6.87053268-13.74106608-10.83430237-22.54944197-10.83430237h-318.86319961c-8.72029187 0-17.00016513 3.96376897-22.54944197 10.83430237L290.16105819 211.67843137c-6.16586275 7.66328662-9.51304581 17.17633243-9.51304508 26.95362955v548.32138603c0 7.75137063 2.02592648 15.23848995 5.90161143 21.93285534l28.89147202 49.5030715c5.10885823 8.89645917 14.62190332 14.445736 24.92770305 14.445736h342.29347953c10.30579974 0 19.81884554-5.54927684 24.92770306-14.445736l28.89147202-49.50307151c3.87568495-6.69436538 5.90161144-14.1814847 5.90161143-21.93285533V238.7201442c0.08808401-9.77729712-3.17101503-19.29034293-9.24879448-27.04171283zM309.53948512 762.73041383V598.54229076c52.40983522-28.36296938 116.00630741-26.86554554 167.09488679 3.87568568 38.75685315 25.19195436 83.67956906 39.54960709 129.83545749 41.39936554 38.93302045 0 76.63286834-13.8291501 106.31709432-38.93302045v157.8460923H308.74673118h0.79275394z m403.95210852-501.37274366v157.8460923c-57.69486075 62.36329964-130.54012743 66.41515261-222.23531842 12.15555821-55.05234834-33.38374361-123.14109213-37.5236806-181.80487411-10.92238566V261.62192149h404.04019253v-0.26425132zM309.53948512 452.41133878c52.49791924-28.36296938 116.00630741-26.86554554 167.09488679 3.87568496 38.75685315 25.19195436 83.67956906 39.54960709 129.83545749 41.39936554 38.93302045 0 76.63286834-13.8291501 106.31709432-38.93302044v106.66942962c-57.69486075 62.36329964-130.54012743 66.3270686-222.23531842 12.15555821-55.05234834-33.38374361-123.05300812-37.5236806-181.80487412-10.92238566V452.41133878h0.79275394z m43.24912474-272.17880853h318.5989483l39.54960637 49.50307077c0.61658663 0.88083723 1.14508853 1.76167518 1.58550787 2.73059713H311.12499227c0.44041861-0.96892123 0.96892123-1.84975919 1.58550788-2.73059713l40.07810971-49.50307077z m330.31408791 663.71110753H340.54496764l-28.89147275-49.50307151c-0.52850263-0.88083723-0.88083723-1.84975919-1.14508853-2.90676443h402.45468466c-0.26425132 0.96892123-0.70466993 1.93784248-1.14508854 2.90676443l-28.71530471 49.50307151z m0 0" fill="#3F4651" p-id="5400"></path><path d="M508.60877567 524.99235416m-129.4831229 0a129.48312218 129.48312218 0 1 0 258.96624508 0 129.48312218 129.48312218 0 1 0-258.96624508 0Z" fill="#3F4651" p-id="5401"></path><path d="M509.13727756 525.43277277m-109.66427662 0a109.66427736 109.66427736 0 1 0 219.32855398 0 109.66427736 109.66427736 0 1 0-219.32855398 0Z" fill="#F9F7F7" p-id="5402"></path></svg>